{
    "accessors" : [
        {
            "bufferView" : 0,
            "componentType" : 5126,
            "count" : 3511,
            "max" : [
                1.3454970121383667,
                -0.3347017168998718,
                4.977318286895752
            ],
            "min" : [
                -1.3454970121383667,
                -1.7508560419082642,
                -3.8881988525390625
            ],
            "type" : "VEC3"
        },
        {
            "bufferView" : 1,
            "componentType" : 5126,
            "count" : 3511,
            "type" : "VEC3"
        },
        {
            "bufferView" : 2,
            "componentType" : 5126,
            "count" : 3511,
            "type" : "VEC2"
        },
        {
            "bufferView" : 3,
            "componentType" : 5123,
            "count" : 9036,
            "type" : "SCALAR"
        },
        {
            "bufferView" : 4,
            "componentType" : 5126,
            "count" : 183,
            "max" : [
                -0.9540129899978638,
                -0.47058001160621643,
                2.509577989578247
            ],
            "min" : [
                -1.202836036682129,
                -1.621461033821106,
                1.4911270141601562
            ],
            "type" : "VEC3"
        },
        {
            "bufferView" : 5,
            "componentType" : 5126,
            "count" : 183,
            "type" : "VEC3"
        },
        {
            "bufferView" : 6,
            "componentType" : 5126,
            "count" : 183,
            "type" : "VEC2"
        },
        {
            "bufferView" : 7,
            "componentType" : 5121,
            "count" : 366,
            "type" : "SCALAR"
        },
        {
            "bufferView" : 8,
            "componentType" : 5126,
            "count" : 183,
            "max" : [
                1.202836036682129,
                -0.47058001160621643,
                2.509577989578247
            ],
            "min" : [
                0.954014003276825,
                -1.621461033821106,
                1.4911270141601562
            ],
            "type" : "VEC3"
        },
        {
            "bufferView" : 9,
            "componentType" : 5126,
            "count" : 183,
            "type" : "VEC3"
        },
        {
            "bufferView" : 10,
            "componentType" : 5126,
            "count" : 183,
            "type" : "VEC2"
        },
        {
            "bufferView" : 11,
            "componentType" : 5121,
            "count" : 366,
            "type" : "SCALAR"
        }
    ],
    "asset" : {
        "generator" : "Khronos Blender glTF 2.0 I/O",
        "version" : "2.0"
    },
    "bufferViews" : [
        {
            "buffer" : 0,
            "byteLength" : 42132,
            "byteOffset" : 0
        },
        {
            "buffer" : 0,
            "byteLength" : 42132,
            "byteOffset" : 42132
        },
        {
            "buffer" : 0,
            "byteLength" : 28088,
            "byteOffset" : 84264
        },
        {
            "buffer" : 0,
            "byteLength" : 18072,
            "byteOffset" : 112352
        },
        {
            "buffer" : 0,
            "byteLength" : 2196,
            "byteOffset" : 130424
        },
        {
            "buffer" : 0,
            "byteLength" : 2196,
            "byteOffset" : 132620
        },
        {
            "buffer" : 0,
            "byteLength" : 1464,
            "byteOffset" : 134816
        },
        {
            "buffer" : 0,
            "byteLength" : 366,
            "byteOffset" : 136280
        },
        {
            "buffer" : 0,
            "byteLength" : 2196,
            "byteOffset" : 136648
        },
        {
            "buffer" : 0,
            "byteLength" : 2196,
            "byteOffset" : 138844
        },
        {
            "buffer" : 0,
            "byteLength" : 1464,
            "byteOffset" : 141040
        },
        {
            "buffer" : 0,
            "byteLength" : 366,
            "byteOffset" : 142504
        }
    ],
    "buffers" : [
        {
            "byteLength" : 142872,
            "uri" : "scene.bin"
        }
    ],
    "extensions" : {},
    "images" : [
        {
            "mimeType" : "image/png",
            "name" : "limo.png",
            "uri" : "limo.png"
        }
    ],
    "materials" : [
        {
            "name" : "limoSG",
            "pbrMetallicRoughness" : {
                "baseColorTexture" : {
                    "index" : 0,
                    "texCoord" : 0
                },
                "metallicFactor" : 0,
                "roughnessFactor" : 0.858578622341156
            }
        }
    ],
    "meshes" : [
        {
            "name" : "Limo_01 Mainbody_Limo",
            "primitives" : [
                {
                    "attributes" : {
                        "NORMAL" : 1,
                        "POSITION" : 0,
                        "TEXCOORD_0" : 2
                    },
                    "indices" : 3,
                    "material" : 0
                }
            ]
        },
        {
            "name" : "Limo_01 DOOR_BR",
            "primitives" : [
                {
                    "attributes" : {
                        "NORMAL" : 5,
                        "POSITION" : 4,
                        "TEXCOORD_0" : 6
                    },
                    "indices" : 7,
                    "material" : 0
                }
            ]
        },
        {
            "name" : "Limo_01 DOOR_BL",
            "primitives" : [
                {
                    "attributes" : {
                        "NORMAL" : 9,
                        "POSITION" : 8,
                        "TEXCOORD_0" : 10
                    },
                    "indices" : 11,
                    "material" : 0
                }
            ]
        }
    ],
    "nodes" : [
        {
            "name" : "Light.001",
            "rotation" : [
                0.5232754349708557,
                0.3420340120792389,
                -0.7269423604011536,
                0.2841660678386688
            ],
            "scale" : [
                1.0000001192092896,
                1,
                1.0000001192092896
            ],
            "translation" : [
                4.076245307922363,
                5.903862476348877,
                -1.0054532289505005
            ]
        },
        {
            "name" : "Camera.001",
            "rotation" : [
                0.8937963247299194,
                0.0906287431716919,
                -0.3857799470424652,
                0.20997262001037598
            ],
            "scale" : [
                1,
                1.0000004768371582,
                1.000000238418579
            ],
            "translation" : [
                7.358891487121582,
                4.958308696746826,
                6.925792217254639
            ]
        },
        {
            "mesh" : 0,
            "name" : "Limo_01 Mainbody_Limo",
            "rotation" : [
                1,
                0,
                0,
                -1.3435885648505064e-07
            ]
        },
        {
            "mesh" : 1,
            "name" : "Limo_01 DOOR_BR",
            "rotation" : [
                1,
                0,
                0,
                -1.3435885648505064e-07
            ]
        },
        {
            "mesh" : 2,
            "name" : "Limo_01 DOOR_BL",
            "rotation" : [
                1,
                0,
                0,
                -1.3435885648505064e-07
            ]
        },
        {
            "name" : "Light",
            "rotation" : [
                0.16907575726509094,
                0.7558802962303162,
                -0.27217137813568115,
                0.570947527885437
            ],
            "scale" : [
                1,
                1,
                0.9999999403953552
            ],
            "translation" : [
                4.076245307922363,
                5.903861999511719,
                -1.0054539442062378
            ]
        },
        {
            "name" : "Camera",
            "rotation" : [
                0.483536034822464,
                0.33687159419059753,
                -0.20870360732078552,
                0.7804827094078064
            ],
            "translation" : [
                7.358891487121582,
                4.958309173583984,
                6.925790786743164
            ]
        }
    ],
    "scene" : 0,
    "scenes" : [
        {
            "name" : "Scene",
            "nodes" : [
                0,
                1,
                2,
                3,
                4,
                5,
                6
            ]
        }
    ],
    "textures" : [
        {
            "source" : 0
        }
    ]
}
