{
    "accessors" : [
        {
            "bufferView" : 0,
            "componentType" : 5126,
            "count" : 1477,
            "max" : [
                113.43174743652344,
                79.31238555908203,
                142.99734497070312
            ],
            "min" : [
                -113.43174743652344,
                -50.99639892578125,
                -343.2909851074219
            ],
            "type" : "VEC3"
        },
        {
            "bufferView" : 1,
            "componentType" : 5126,
            "count" : 1477,
            "type" : "VEC3"
        },
        {
            "bufferView" : 2,
            "componentType" : 5126,
            "count" : 1477,
            "type" : "VEC2"
        },
        {
            "bufferView" : 3,
            "componentType" : 5126,
            "count" : 1477,
            "type" : "VEC4"
        },
        {
            "bufferView" : 4,
            "componentType" : 5123,
            "count" : 3654,
            "type" : "SCALAR"
        }
    ],
    "asset" : {
        "generator" : "Khronos Blender glTF 2.0 I/O",
        "version" : "2.0"
    },
    "bufferViews" : [
        {
            "buffer" : 0,
            "byteLength" : 17724,
            "byteOffset" : 0
        },
        {
            "buffer" : 0,
            "byteLength" : 17724,
            "byteOffset" : 17724
        },
        {
            "buffer" : 0,
            "byteLength" : 11816,
            "byteOffset" : 35448
        },
        {
            "buffer" : 0,
            "byteLength" : 23632,
            "byteOffset" : 47264
        },
        {
            "buffer" : 0,
            "byteLength" : 7308,
            "byteOffset" : 70896
        }
    ],
    "buffers" : [
        {
            "byteLength" : 78204,
            "uri" : "scene.bin"
        }
    ],
    "extensions" : {},
    "images" : [
        {
            "mimeType" : "image/png",
            "name" : "Material_1005_normal.png",
            "uri" : "Material_1005_normal.png"
        },
        {
            "mimeType" : "image/png",
            "name" : "Material_1005_baseColor.png",
            "uri" : "Material_1005_baseColor.png"
        },
        {
            "mimeType" : "image/png",
            "name" : "Material_1005_metallicRoughness.png.001",
            "uri" : "Material_1005_metallicRoughness.png.png"
        }
    ],
    "materials" : [
        {
            "name" : "Material_1005",
            "normalTexture" : {
                "index" : 0,
                "texCoord" : 0
            },
            "pbrMetallicRoughness" : {
                "baseColorTexture" : {
                    "index" : 1,
                    "texCoord" : 0
                },
                "metallicRoughnessTexture" : {
                    "index" : 2,
                    "texCoord" : 0
                }
            }
        }
    ],
    "meshes" : [
        {
            "name" : "003_Material #1005_0",
            "primitives" : [
                {
                    "attributes" : {
                        "COLOR_0" : 3,
                        "NORMAL" : 1,
                        "POSITION" : 0,
                        "TEXCOORD_0" : 2
                    },
                    "indices" : 4,
                    "material" : 0
                }
            ]
        }
    ],
    "nodes" : [
        {
            "mesh" : 0,
            "name" : "003_Material #1005_0",
            "translation" : [
                249.8650360107422,
                -7.62939453125e-06,
                103.80123138427734
            ]
        },
        {
            "children" : [
                0
            ],
            "name" : "003",
            "rotation" : [
                -0.7071068286895752,
                0,
                0,
                0.7071067094802856
            ],
            "scale" : [
                1,
                1.0000001192092896,
                1.0000001192092896
            ],
            "translation" : [
                -250.16622924804688,
                3.199436832801439e-06,
                -73.19457244873047
            ]
        },
        {
            "name" : "1",
            "rotation" : [
                -0.5,
                0.5,
                -0.5,
                0.5
            ],
            "translation" : [
                284.0158996582031,
                3.659270078060217e-06,
                -83.7143325805664
            ]
        },
        {
            "name" : "3",
            "rotation" : [
                -0.5,
                0.5,
                -0.5,
                0.5
            ],
            "translation" : [
                17.071426391601562,
                3.657268280221615e-06,
                -83.66853332519531
            ]
        },
        {
            "name" : "Object001",
            "rotation" : [
                -0.5,
                0.5,
                -0.5,
                0.5
            ],
            "translation" : [
                546.248046875,
                3.6572819226421416e-06,
                -83.66886901855469
            ]
        },
        {
            "children" : [
                1,
                2,
                3,
                4
            ],
            "name" : "RootNode",
            "rotation" : [
                7.105427357601002e-15,
                0,
                0,
                1
            ]
        },
        {
            "children" : [
                5
            ],
            "name" : "cars.FBX",
            "rotation" : [
                0.7071068286895752,
                0,
                0,
                0.7071067094802856
            ],
            "scale" : [
                1,
                1.0000001192092896,
                1.0000001192092896
            ]
        },
        {
            "children" : [
                6
            ],
            "name" : "RootNode (model correction matrix)"
        },
        {
            "children" : [
                7
            ],
            "name" : "RootNode (gltf orientation matrix)",
            "scale" : [
                1,
                1.000000238418579,
                1.000000238418579
            ]
        },
        {
            "name" : "Light",
            "rotation" : [
                0.16907575726509094,
                0.7558802962303162,
                -0.27217137813568115,
                0.570947527885437
            ],
            "scale" : [
                1,
                1,
                0.9999999403953552
            ],
            "translation" : [
                4.076245307922363,
                5.903861999511719,
                -1.0054539442062378
            ]
        },
        {
            "name" : "Camera",
            "rotation" : [
                0.483536034822464,
                0.33687159419059753,
                -0.20870360732078552,
                0.7804827094078064
            ],
            "translation" : [
                7.358891487121582,
                4.958309173583984,
                6.925790786743164
            ]
        }
    ],
    "scene" : 0,
    "scenes" : [
        {
            "name" : "Scene",
            "nodes" : [
                8,
                9,
                10
            ]
        }
    ],
    "textures" : [
        {
            "source" : 0
        },
        {
            "source" : 1
        },
        {
            "source" : 2
        }
    ]
}
