{
    "accessors" : [
        {
            "bufferView" : 0,
            "componentType" : 5126,
            "count" : 2920,
            "max" : [
                129.85162353515625,
                189.60618591308594,
                333.3890380859375
            ],
            "min" : [
                -130.06381225585938,
                19.36481285095215,
                -390.18011474609375
            ],
            "type" : "VEC3"
        },
        {
            "bufferView" : 1,
            "componentType" : 5126,
            "count" : 2920,
            "type" : "VEC3"
        },
        {
            "bufferView" : 2,
            "componentType" : 5126,
            "count" : 2920,
            "type" : "VEC2"
        },
        {
            "bufferView" : 3,
            "componentType" : 5123,
            "count" : 6576,
            "type" : "SCALAR"
        },
        {
            "bufferView" : 4,
            "componentType" : 5126,
            "count" : 68,
            "max" : [
                104.2876968383789,
                175.285400390625,
                133.18006896972656
            ],
            "min" : [
                -104.49987030029297,
                122.31787109375,
                -246.09225463867188
            ],
            "type" : "VEC3"
        },
        {
            "bufferView" : 5,
            "componentType" : 5126,
            "count" : 68,
            "type" : "VEC3"
        },
        {
            "bufferView" : 6,
            "componentType" : 5126,
            "count" : 68,
            "type" : "VEC2"
        },
        {
            "bufferView" : 7,
            "componentType" : 5121,
            "count" : 138,
            "type" : "SCALAR"
        }
    ],
    "asset" : {
        "generator" : "Khronos Blender glTF 2.0 I/O",
        "version" : "2.0"
    },
    "bufferViews" : [
        {
            "buffer" : 0,
            "byteLength" : 35040,
            "byteOffset" : 0
        },
        {
            "buffer" : 0,
            "byteLength" : 35040,
            "byteOffset" : 35040
        },
        {
            "buffer" : 0,
            "byteLength" : 23360,
            "byteOffset" : 70080
        },
        {
            "buffer" : 0,
            "byteLength" : 13152,
            "byteOffset" : 93440
        },
        {
            "buffer" : 0,
            "byteLength" : 816,
            "byteOffset" : 106592
        },
        {
            "buffer" : 0,
            "byteLength" : 816,
            "byteOffset" : 107408
        },
        {
            "buffer" : 0,
            "byteLength" : 544,
            "byteOffset" : 108224
        },
        {
            "buffer" : 0,
            "byteLength" : 138,
            "byteOffset" : 108768
        }
    ],
    "buffers" : [
        {
            "byteLength" : 108908,
            "uri" : "scene.bin"
        }
    ],
    "extensions" : {},
    "images" : [
        {
            "mimeType" : "image/png",
            "name" : "Material_294_normal.png",
            "uri" : "Material_294_normal.png"
        },
        {
            "mimeType" : "image/png",
            "name" : "Material_294_baseColor.png",
            "uri" : "Material_294_baseColor.png"
        },
        {
            "mimeType" : "image/png",
            "name" : "Material_294_metallicRoughness.png.001",
            "uri" : "Material_294_metallicRoughness.png.png"
        },
        {
            "mimeType" : "image/png",
            "name" : "Material_295_normal.png",
            "uri" : "Material_295_normal.png"
        },
        {
            "mimeType" : "image/png",
            "name" : "Material_295_baseColor.png",
            "uri" : "Material_295_baseColor.png"
        },
        {
            "mimeType" : "image/png",
            "name" : "Material_295_metallicRoughness.png.001",
            "uri" : "Material_295_metallicRoughness.png.png"
        }
    ],
    "materials" : [
        {
            "name" : "Material_294",
            "normalTexture" : {
                "index" : 0,
                "texCoord" : 0
            },
            "pbrMetallicRoughness" : {
                "baseColorTexture" : {
                    "index" : 1,
                    "texCoord" : 0
                },
                "metallicRoughnessTexture" : {
                    "index" : 2,
                    "texCoord" : 0
                }
            }
        },
        {
            "name" : "Material_295",
            "normalTexture" : {
                "index" : 3,
                "texCoord" : 0
            },
            "pbrMetallicRoughness" : {
                "baseColorTexture" : {
                    "index" : 4,
                    "texCoord" : 0
                },
                "metallicRoughnessTexture" : {
                    "index" : 5,
                    "texCoord" : 0
                }
            }
        }
    ],
    "meshes" : [
        {
            "name" : "Object006_Material #294_0",
            "primitives" : [
                {
                    "attributes" : {
                        "NORMAL" : 1,
                        "POSITION" : 0,
                        "TEXCOORD_0" : 2
                    },
                    "indices" : 3,
                    "material" : 0
                }
            ]
        },
        {
            "name" : "Object007_Material #295_0",
            "primitives" : [
                {
                    "attributes" : {
                        "NORMAL" : 5,
                        "POSITION" : 4,
                        "TEXCOORD_0" : 6
                    },
                    "indices" : 7,
                    "material" : 1
                }
            ]
        }
    ],
    "nodes" : [
        {
            "mesh" : 0,
            "name" : "Object006_Material #294_0"
        },
        {
            "children" : [
                0
            ],
            "name" : "Object006",
            "rotation" : [
                -0.7071068286895752,
                0,
                0,
                0.7071067094802856
            ],
            "scale" : [
                1,
                1.0000001192092896,
                1.0000001192092896
            ],
            "translation" : [
                0,
                -2.080769831991347e-07,
                4.760246276855469
            ]
        },
        {
            "mesh" : 1,
            "name" : "Object007_Material #295_0"
        },
        {
            "children" : [
                2
            ],
            "name" : "Object007",
            "rotation" : [
                -0.7071068286895752,
                0,
                0,
                0.7071067094802856
            ],
            "scale" : [
                1,
                1.0000001192092896,
                1.0000001192092896
            ],
            "translation" : [
                0,
                -2.080769831991347e-07,
                4.760246276855469
            ]
        },
        {
            "name" : "Plane001",
            "rotation" : [
                -0.7071068286895752,
                0,
                0,
                0.7071067094802856
            ],
            "scale" : [
                1,
                1.0000001192092896,
                1.0000001192092896
            ],
            "translation" : [
                2.13043212890625,
                -46.352294921875,
                -4.547473508864641e-13
            ]
        },
        {
            "children" : [
                1,
                3,
                4
            ],
            "name" : "RootNode",
            "rotation" : [
                7.105427357601002e-15,
                0,
                0,
                1
            ]
        },
        {
            "children" : [
                5
            ],
            "name" : "oldcar.FBX",
            "rotation" : [
                0.7071068286895752,
                0,
                0,
                0.7071067094802856
            ],
            "scale" : [
                1,
                1.0000001192092896,
                1.0000001192092896
            ]
        },
        {
            "children" : [
                6
            ],
            "name" : "RootNode (model correction matrix)"
        },
        {
            "children" : [
                7
            ],
            "name" : "RootNode (gltf orientation matrix)",
            "scale" : [
                1,
                1.000000238418579,
                1.000000238418579
            ]
        },
        {
            "name" : "Light",
            "rotation" : [
                0.16907575726509094,
                0.7558802962303162,
                -0.27217137813568115,
                0.570947527885437
            ],
            "scale" : [
                1,
                1,
                0.9999999403953552
            ],
            "translation" : [
                4.076245307922363,
                5.903861999511719,
                -1.0054539442062378
            ]
        },
        {
            "name" : "Camera",
            "rotation" : [
                0.483536034822464,
                0.33687159419059753,
                -0.20870360732078552,
                0.7804827094078064
            ],
            "translation" : [
                7.358891487121582,
                4.958309173583984,
                6.925790786743164
            ]
        }
    ],
    "scene" : 0,
    "scenes" : [
        {
            "name" : "Scene",
            "nodes" : [
                8,
                9,
                10
            ]
        }
    ],
    "textures" : [
        {
            "source" : 0
        },
        {
            "source" : 1
        },
        {
            "source" : 2
        },
        {
            "source" : 3
        },
        {
            "source" : 4
        },
        {
            "source" : 5
        }
    ]
}
