{
  "accessors": [
    {
      "bufferView": 2,
      "componentType": 5126,
      "count": 2643,
      "max": [
        50.367198944091797,
        146.80484008789062,
        72.556076049804688
      ],
      "min": [
        -50.367198944091797,
        -135.75711059570312,
        2.1788864135742188
      ],
      "type": "VEC3"
    },
    {
      "bufferView": 2,
      "byteOffset": 31716,
      "componentType": 5126,
      "count": 2643,
      "max": [
        1,
        1,
        1
      ],
      "min": [
        -1,
        -1,
        -1
      ],
      "type": "VEC3"
    },
    {
      "bufferView": 3,
      "componentType": 5126,
      "count": 2643,
      "max": [
        1,
        1,
        1,
        1
      ],
      "min": [
        -1,
        -1,
        -1,
        -1
      ],
      "type": "VEC4"
    },
    {
      "bufferView": 1,
      "componentType": 5126,
      "count": 2643,
      "max": [
        0.99799996614456177,
        0.99631792306900024
      ],
      "min": [
        0.0020000000949949026,
        0.0020000000949949026
      ],
      "type": "VEC2"
    },
    {
      "bufferView": 0,
      "componentType": 5125,
      "count": 7410,
      "max": [
        2642
      ],
      "min": [
        0
      ],
      "type": "SCALAR"
    },
    {
      "bufferView": 2,
      "byteOffset": 63432,
      "componentType": 5126,
      "count": 58,
      "max": [
        42.683868408203125,
        79.958580017089844,
        68.48394775390625
      ],
      "min": [
        -42.683868408203125,
        -59.030853271484375,
        47.241184234619141
      ],
      "type": "VEC3"
    },
    {
      "bufferView": 2,
      "byteOffset": 64128,
      "componentType": 5126,
      "count": 58,
      "max": [
        0.99884742498397827,
        0.61621671915054321,
        0.81464487314224243
      ],
      "min": [
        -0.99884748458862305,
        -0.63887476921081543,
        -0.41936883330345154
      ],
      "type": "VEC3"
    },
    {
      "bufferView": 3,
      "byteOffset": 42288,
      "componentType": 5126,
      "count": 58,
      "max": [
        1,
        0.99999743700027466,
        0.62874466180801392,
        1
      ],
      "min": [
        -0.093785636126995087,
        -0.99999737739562988,
        -0.62993925809860229,
        1
      ],
      "type": "VEC4"
    },
    {
      "bufferView": 1,
      "byteOffset": 21144,
      "componentType": 5126,
      "count": 58,
      "max": [
        0.68320971727371216,
        0.80080550909042358
      ],
      "min": [
        0.0020000000949949026,
        0.026232479140162468
      ],
      "type": "VEC2"
    },
    {
      "bufferView": 0,
      "byteOffset": 29640,
      "componentType": 5125,
      "count": 126,
      "max": [
        57
      ],
      "min": [
        0
      ],
      "type": "SCALAR"
    },
    {
      "bufferView": 2,
      "byteOffset": 64824,
      "componentType": 5126,
      "count": 4,
      "max": [
        198.55865478515625,
        201.6611328125,
        0
      ],
      "min": [
        -198.55865478515625,
        -201.6611328125,
        0
      ],
      "type": "VEC3"
    },
    {
      "bufferView": 2,
      "byteOffset": 64872,
      "componentType": 5126,
      "count": 4,
      "max": [
        0,
        0,
        1
      ],
      "min": [
        0,
        0,
        1
      ],
      "type": "VEC3"
    },
    {
      "bufferView": 3,
      "byteOffset": 43216,
      "componentType": 5126,
      "count": 4,
      "max": [
        1,
        0,
        0,
        1
      ],
      "min": [
        1,
        0,
        0,
        1
      ],
      "type": "VEC4"
    },
    {
      "bufferView": 1,
      "byteOffset": 21608,
      "componentType": 5126,
      "count": 4,
      "max": [
        1,
        1
      ],
      "min": [
        0,
        0
      ],
      "type": "VEC2"
    },
    {
      "bufferView": 0,
      "byteOffset": 30144,
      "componentType": 5125,
      "count": 6,
      "max": [
        3
      ],
      "min": [
        0
      ],
      "type": "SCALAR"
    }
  ],
  "asset": {
    "extras": {
      "author": "Renafox (https://sketchfab.com/kryik1023)",
      "license": "CC-BY-NC-4.0 (http://creativecommons.org/licenses/by-nc/4.0/)",
      "source": "https://sketchfab.com/models/544aa41de67b48cf89f8fcc2bb06e8f4",
      "title": "Old Rusty Car 2"
    },
    "generator": "Sketchfab-3.19.5",
    "version": "2.0"
  },
  "bufferViews": [
    {
      "buffer": 0,
      "byteLength": 30168,
      "byteOffset": 0,
      "name": "floatBufferViews",
      "target": 34963
    },
    {
      "buffer": 0,
      "byteLength": 21640,
      "byteOffset": 30168,
      "byteStride": 8,
      "name": "floatBufferViews",
      "target": 34962
    },
    {
      "buffer": 0,
      "byteLength": 64920,
      "byteOffset": 51808,
      "byteStride": 12,
      "name": "floatBufferViews",
      "target": 34962
    },
    {
      "buffer": 0,
      "byteLength": 43280,
      "byteOffset": 116728,
      "byteStride": 16,
      "name": "floatBufferViews",
      "target": 34962
    }
  ],
  "buffers": [
    {
      "byteLength": 160008,
      "uri": "scene.bin"
    }
  ],
  "images": [
    {
      "uri": "textures/Material_58_baseColor.png"
    },
    {
      "uri": "textures/Material_37_baseColor.png"
    },
    {
      "uri": "textures/Material_37_normal.png"
    },
    {
      "uri": "textures/Material_37_metallicRoughness.png"
    },
    {
      "uri": "textures/Material_33_baseColor.png"
    },
    {
      "uri": "textures/Material_33_normal.png"
    },
    {
      "uri": "textures/Material_33_metallicRoughness.png"
    }
  ],
  "materials": [
    {
      "doubleSided": true,
      "name": "Material_37",
      "normalTexture": {
        "index": 2,
        "scale": 1,
        "texCoord": 0
      },
      "pbrMetallicRoughness": {
        "baseColorFactor": [
          1,
          1,
          1,
          1
        ],
        "baseColorTexture": {
          "index": 1,
          "texCoord": 0
        },
        "metallicFactor": 1,
        "metallicRoughnessTexture": {
          "index": 3,
          "texCoord": 0
        },
        "roughnessFactor": 1
      }
    },
    {
      "alphaMode": "BLEND",
      "doubleSided": true,
      "emissiveFactor": [
        0,
        0,
        0
      ],
      "name": "Material_33",
      "normalTexture": {
        "index": 5,
        "scale": 1,
        "texCoord": 0
      },
      "pbrMetallicRoughness": {
        "baseColorFactor": [
          1,
          1,
          1,
          0.59999999999999998
        ],
        "baseColorTexture": {
          "index": 4,
          "texCoord": 0
        },
        "metallicFactor": 1,
        "metallicRoughnessTexture": {
          "index": 6,
          "texCoord": 0
        },
        "roughnessFactor": 1
      }
    },
    {
      "alphaMode": "BLEND",
      "doubleSided": true,
      "emissiveFactor": [
        0,
        0,
        0
      ],
      "name": "Material_58",
      "pbrMetallicRoughness": {
        "baseColorFactor": [
          1,
          1,
          1,
          1
        ],
        "baseColorTexture": {
          "index": 0,
          "texCoord": 0
        },
        "metallicFactor": 0,
        "roughnessFactor": 1
      }
    }
  ],
  "meshes": [
    {
      "name": "Object001_Material #37_0",
      "primitives": [
        {
          "attributes": {
            "NORMAL": 1,
            "POSITION": 0,
            "TANGENT": 2,
            "TEXCOORD_0": 3
          },
          "indices": 4,
          "material": 0,
          "mode": 4
        }
      ]
    },
    {
      "name": "Object002_Material #33_0",
      "primitives": [
        {
          "attributes": {
            "NORMAL": 6,
            "POSITION": 5,
            "TANGENT": 7,
            "TEXCOORD_0": 8
          },
          "indices": 9,
          "material": 1,
          "mode": 4
        }
      ]
    },
    {
      "name": "Plane001_Material #58_0",
      "primitives": [
        {
          "attributes": {
            "NORMAL": 11,
            "POSITION": 10,
            "TANGENT": 12,
            "TEXCOORD_0": 13
          },
          "indices": 14,
          "material": 2,
          "mode": 4
        }
      ]
    }
  ],
  "nodes": [
    {
      "children": [
        1
      ],
      "name": "RootNode (gltf orientation matrix)",
      "rotation": [
        -0.70710678118654746,
        -0,
        -0,
        0.70710678118654757
      ]
    },
    {
      "children": [
        2
      ],
      "name": "RootNode (model correction matrix)"
    },
    {
      "children": [
        3
      ],
      "matrix": [
        1,
        0,
        0,
        0,
        0,
        0,
        1,
        0,
        0,
        -1,
        0,
        0,
        0,
        0,
        0,
        1
      ],
      "name": "desoto.FBX"
    },
    {
      "children": [
        4,
        6,
        8
      ],
      "name": "RootNode"
    },
    {
      "children": [
        5
      ],
      "matrix": [
        1,
        0,
        0,
        0,
        0,
        2.2204460492503131e-16,
        -1,
        0,
        0,
        1,
        2.2204460492503131e-16,
        0,
        0,
        0,
        0,
        1
      ],
      "name": "Object001"
    },
    {
      "mesh": 0,
      "name": "Object001_Material #37_0"
    },
    {
      "children": [
        7
      ],
      "matrix": [
        1,
        0,
        0,
        0,
        0,
        2.2204460492503131e-16,
        -1,
        0,
        0,
        1,
        2.2204460492503131e-16,
        0,
        0,
        0,
        0,
        1
      ],
      "name": "Object002"
    },
    {
      "mesh": 1,
      "name": "Object002_Material #33_0"
    },
    {
      "children": [
        9
      ],
      "matrix": [
        0.69671875238418579,
        0,
        0,
        0,
        0,
        2.4878961729502664e-16,
        -1.1204488277435303,
        0,
        0,
        1,
        2.2204460492503131e-16,
        0,
        0.81685638427734375,
        1.8610609769821167,
        -1.2581175565719604,
        1
      ],
      "name": "Plane001"
    },
    {
      "mesh": 2,
      "name": "Plane001_Material #58_0"
    }
  ],
  "samplers": [
    {
      "magFilter": 9729,
      "minFilter": 9987,
      "wrapS": 10497,
      "wrapT": 10497
    }
  ],
  "scene": 0,
  "scenes": [
    {
      "name": "OSG_Scene",
      "nodes": [
        0
      ]
    }
  ],
  "textures": [
    {
      "sampler": 0,
      "source": 0
    },
    {
      "sampler": 0,
      "source": 1
    },
    {
      "sampler": 0,
      "source": 2
    },
    {
      "sampler": 0,
      "source": 3
    },
    {
      "sampler": 0,
      "source": 4
    },
    {
      "sampler": 0,
      "source": 5
    },
    {
      "sampler": 0,
      "source": 6
    }
  ]
}

