{
    "accessors" : [
        {
            "bufferView" : 0,
            "componentType" : 5126,
            "count" : 6034,
            "max" : [
                151.7298583984375,
                45.03657531738281,
                15.566998481750488
            ],
            "min" : [
                -51.90404510498047,
                -45.03660583496094,
                -61.197242736816406
            ],
            "type" : "VEC3"
        },
        {
            "bufferView" : 1,
            "componentType" : 5126,
            "count" : 6034,
            "type" : "VEC3"
        },
        {
            "bufferView" : 2,
            "componentType" : 5126,
            "count" : 6034,
            "type" : "VEC2"
        },
        {
            "bufferView" : 3,
            "componentType" : 5123,
            "count" : 12978,
            "type" : "SCALAR"
        },
        {
            "bufferView" : 4,
            "componentType" : 5126,
            "count" : 158,
            "max" : [
                35.15918731689453,
                72.50505828857422,
                28.867393493652344
            ],
            "min" : [
                -35.15918731689453,
                51.326805114746094,
                -107.51741027832031
            ],
            "type" : "VEC3"
        },
        {
            "bufferView" : 5,
            "componentType" : 5126,
            "count" : 158,
            "type" : "VEC3"
        },
        {
            "bufferView" : 6,
            "componentType" : 5126,
            "count" : 158,
            "type" : "VEC2"
        },
        {
            "bufferView" : 7,
            "componentType" : 5121,
            "count" : 210,
            "type" : "SCALAR"
        }
    ],
    "asset" : {
        "generator" : "Khronos Blender glTF 2.0 I/O",
        "version" : "2.0"
    },
    "bufferViews" : [
        {
            "buffer" : 0,
            "byteLength" : 72408,
            "byteOffset" : 0
        },
        {
            "buffer" : 0,
            "byteLength" : 72408,
            "byteOffset" : 72408
        },
        {
            "buffer" : 0,
            "byteLength" : 48272,
            "byteOffset" : 144816
        },
        {
            "buffer" : 0,
            "byteLength" : 25956,
            "byteOffset" : 193088
        },
        {
            "buffer" : 0,
            "byteLength" : 1896,
            "byteOffset" : 219044
        },
        {
            "buffer" : 0,
            "byteLength" : 1896,
            "byteOffset" : 220940
        },
        {
            "buffer" : 0,
            "byteLength" : 1264,
            "byteOffset" : 222836
        },
        {
            "buffer" : 0,
            "byteLength" : 210,
            "byteOffset" : 224100
        }
    ],
    "buffers" : [
        {
            "byteLength" : 224312,
            "uri" : "scene.bin"
        }
    ],
    "extensions" : {},
    "images" : [
        {
            "mimeType" : "image/png",
            "name" : "Material_48_emissive.png",
            "uri" : "Material_48_emissive.png"
        },
        {
            "mimeType" : "image/png",
            "name" : "Material_48_normal.png",
            "uri" : "Material_48_normal.png"
        },
        {
            "mimeType" : "image/png",
            "name" : "Material_48_baseColor.png",
            "uri" : "Material_48_baseColor.png"
        },
        {
            "mimeType" : "image/png",
            "name" : "Material_48_metallicRoughness.png.001",
            "uri" : "Material_48_metallicRoughness.png.png"
        },
        {
            "mimeType" : "image/png",
            "name" : "Material_49_normal.png",
            "uri" : "Material_49_normal.png"
        },
        {
            "mimeType" : "image/png",
            "name" : "Material_49_baseColor.png",
            "uri" : "Material_49_baseColor.png"
        },
        {
            "mimeType" : "image/png",
            "name" : "Material_49_metallicRoughness.png.001",
            "uri" : "Material_49_metallicRoughness.png.png"
        }
    ],
    "materials" : [
        {
            "emissiveTexture" : {
                "index" : 0,
                "texCoord" : 0
            },
            "name" : "Material_48",
            "normalTexture" : {
                "index" : 1,
                "texCoord" : 0
            },
            "pbrMetallicRoughness" : {
                "baseColorTexture" : {
                    "index" : 2,
                    "texCoord" : 0
                },
                "metallicRoughnessTexture" : {
                    "index" : 3,
                    "texCoord" : 0
                }
            }
        },
        {
            "name" : "Material_49",
            "normalTexture" : {
                "index" : 4,
                "texCoord" : 0
            },
            "pbrMetallicRoughness" : {
                "baseColorTexture" : {
                    "index" : 5,
                    "texCoord" : 0
                },
                "metallicRoughnessTexture" : {
                    "index" : 6,
                    "texCoord" : 0
                }
            }
        }
    ],
    "meshes" : [
        {
            "name" : "Cylinder002_Material #48_0",
            "primitives" : [
                {
                    "attributes" : {
                        "NORMAL" : 1,
                        "POSITION" : 0,
                        "TEXCOORD_0" : 2
                    },
                    "indices" : 3,
                    "material" : 0
                }
            ]
        },
        {
            "name" : "Object001_Material #49_0",
            "primitives" : [
                {
                    "attributes" : {
                        "NORMAL" : 5,
                        "POSITION" : 4,
                        "TEXCOORD_0" : 6
                    },
                    "indices" : 7,
                    "material" : 1
                }
            ]
        }
    ],
    "nodes" : [
        {
            "mesh" : 0,
            "name" : "Cylinder002_Material #48_0",
            "rotation" : [
                0,
                0,
                3.5527132552840273e-15,
                1
            ],
            "translation" : [
                3.814697265625e-06,
                9.094947017729282e-13,
                4.732664820039645e-07
            ]
        },
        {
            "children" : [
                0
            ],
            "name" : "Cylinder002",
            "rotation" : [
                1.5454313384566376e-08,
                1.5454308055495858e-08,
                0.7071067094802856,
                0.70710688829422
            ],
            "scale" : [
                0.9999998807907104,
                0.9999999403953552,
                1
            ],
            "translation" : [
                2.636064436956076e-06,
                -60.306121826171875,
                -15.673032760620117
            ]
        },
        {
            "mesh" : 1,
            "name" : "Object001_Material #49_0"
        },
        {
            "children" : [
                2
            ],
            "name" : "Object001",
            "rotation" : [
                -0.7071068286895752,
                0,
                0,
                0.7071067094802856
            ],
            "scale" : [
                1,
                1.0000001192092896,
                1.0000001192092896
            ]
        },
        {
            "name" : "Plane001",
            "rotation" : [
                -0.7071068286895752,
                0,
                0,
                0.7071067094802856
            ],
            "scale" : [
                1,
                1.0000001192092896,
                1.0000001192092896
            ],
            "translation" : [
                1.2138290405273438,
                -1.1252822875976562,
                0
            ]
        },
        {
            "children" : [
                1,
                3,
                4
            ],
            "name" : "RootNode"
        },
        {
            "children" : [
                5
            ],
            "name" : "landcruiser.FBX",
            "rotation" : [
                0.7071068286895752,
                0,
                0,
                0.7071067094802856
            ],
            "scale" : [
                1,
                1.0000001192092896,
                1.0000001192092896
            ]
        },
        {
            "children" : [
                6
            ],
            "name" : "RootNode (model correction matrix)"
        },
        {
            "name" : "Light",
            "rotation" : [
                0.16907575726509094,
                0.7558802962303162,
                -0.27217137813568115,
                0.570947527885437
            ],
            "scale" : [
                1,
                1,
                0.9999999403953552
            ],
            "translation" : [
                4.076245307922363,
                5.903861999511719,
                -1.0054539442062378
            ]
        },
        {
            "name" : "Camera",
            "rotation" : [
                0.483536034822464,
                0.33687159419059753,
                -0.20870360732078552,
                0.7804827094078064
            ],
            "translation" : [
                7.358891487121582,
                4.958309173583984,
                6.925790786743164
            ]
        }
    ],
    "scene" : 0,
    "scenes" : [
        {
            "name" : "Scene",
            "nodes" : [
                7,
                8,
                9
            ]
        }
    ],
    "textures" : [
        {
            "source" : 0
        },
        {
            "source" : 1
        },
        {
            "source" : 2
        },
        {
            "source" : 3
        },
        {
            "source" : 4
        },
        {
            "source" : 5
        },
        {
            "source" : 6
        }
    ]
}
