{
    "accessors" : [
        {
            "bufferView" : 0,
            "componentType" : 5126,
            "count" : 4554,
            "max" : [
                151.7298583984375,
                5.028068542480469,
                45.03660583496094
            ],
            "min" : [
                -51.90404510498047,
                -61.197242736816406,
                -45.03657531738281
            ],
            "type" : "VEC3"
        },
        {
            "bufferView" : 1,
            "componentType" : 5126,
            "count" : 4554,
            "type" : "VEC3"
        },
        {
            "bufferView" : 2,
            "componentType" : 5126,
            "count" : 4554,
            "type" : "VEC2"
        },
        {
            "bufferView" : 3,
            "componentType" : 5123,
            "count" : 9984,
            "type" : "SCALAR"
        },
        {
            "bufferView" : 4,
            "componentType" : 5126,
            "count" : 158,
            "max" : [
                35.15918731689453,
                28.867393493652344,
                -51.326805114746094
            ],
            "min" : [
                -35.15918731689453,
                -107.51741027832031,
                -72.50505828857422
            ],
            "type" : "VEC3"
        },
        {
            "bufferView" : 5,
            "componentType" : 5126,
            "count" : 158,
            "type" : "VEC3"
        },
        {
            "bufferView" : 6,
            "componentType" : 5126,
            "count" : 158,
            "type" : "VEC2"
        },
        {
            "bufferView" : 7,
            "componentType" : 5121,
            "count" : 210,
            "type" : "SCALAR"
        }
    ],
    "asset" : {
        "generator" : "Khronos Blender glTF 2.0 I/O",
        "version" : "2.0"
    },
    "bufferViews" : [
        {
            "buffer" : 0,
            "byteLength" : 54648,
            "byteOffset" : 0
        },
        {
            "buffer" : 0,
            "byteLength" : 54648,
            "byteOffset" : 54648
        },
        {
            "buffer" : 0,
            "byteLength" : 36432,
            "byteOffset" : 109296
        },
        {
            "buffer" : 0,
            "byteLength" : 19968,
            "byteOffset" : 145728
        },
        {
            "buffer" : 0,
            "byteLength" : 1896,
            "byteOffset" : 165696
        },
        {
            "buffer" : 0,
            "byteLength" : 1896,
            "byteOffset" : 167592
        },
        {
            "buffer" : 0,
            "byteLength" : 1264,
            "byteOffset" : 169488
        },
        {
            "buffer" : 0,
            "byteLength" : 210,
            "byteOffset" : 170752
        }
    ],
    "buffers" : [
        {
            "byteLength" : 170964,
            "uri" : "scene.bin"
        }
    ],
    "extensions" : {},
    "images" : [
        {
            "mimeType" : "image/png",
            "name" : "Material_48_emissive.png",
            "uri" : "Material_48_emissive.png"
        },
        {
            "mimeType" : "image/png",
            "name" : "Material_48_normal.png",
            "uri" : "Material_48_normal.png"
        },
        {
            "mimeType" : "image/png",
            "name" : "Material_48_baseColor.png",
            "uri" : "Material_48_baseColor.png"
        },
        {
            "mimeType" : "image/png",
            "name" : "Material_48_metallicRoughness.png.png",
            "uri" : "Material_48_metallicRoughness.png.png"
        },
        {
            "mimeType" : "image/png",
            "name" : "Material_49_normal.png",
            "uri" : "Material_49_normal.png"
        },
        {
            "mimeType" : "image/png",
            "name" : "Material_49_baseColor.png",
            "uri" : "Material_49_baseColor.png"
        },
        {
            "mimeType" : "image/png",
            "name" : "Material_49_metallicRoughness.png.png",
            "uri" : "Material_49_metallicRoughness.png.png"
        }
    ],
    "materials" : [
        {
            "emissiveTexture" : {
                "index" : 0,
                "texCoord" : 0
            },
            "name" : "Material_48",
            "normalTexture" : {
                "index" : 1,
                "texCoord" : 0
            },
            "pbrMetallicRoughness" : {
                "baseColorTexture" : {
                    "index" : 2,
                    "texCoord" : 0
                },
                "metallicRoughnessTexture" : {
                    "index" : 3,
                    "texCoord" : 0
                }
            }
        },
        {
            "name" : "Material_49",
            "normalTexture" : {
                "index" : 4,
                "texCoord" : 0
            },
            "pbrMetallicRoughness" : {
                "baseColorTexture" : {
                    "index" : 5,
                    "texCoord" : 0
                },
                "metallicRoughnessTexture" : {
                    "index" : 6,
                    "texCoord" : 0
                }
            }
        }
    ],
    "meshes" : [
        {
            "name" : "Cylinder002_Material #48_0",
            "primitives" : [
                {
                    "attributes" : {
                        "NORMAL" : 1,
                        "POSITION" : 0,
                        "TEXCOORD_0" : 2
                    },
                    "indices" : 3,
                    "material" : 0
                }
            ]
        },
        {
            "name" : "Object001_Material #49_0",
            "primitives" : [
                {
                    "attributes" : {
                        "NORMAL" : 5,
                        "POSITION" : 4,
                        "TEXCOORD_0" : 6
                    },
                    "indices" : 7,
                    "material" : 1
                }
            ]
        }
    ],
    "nodes" : [
        {
            "mesh" : 0,
            "name" : "Cylinder002_Material #48_0",
            "rotation" : [
                0,
                3.5527130435257905e-15,
                0,
                1
            ],
            "translation" : [
                3.814697265625e-06,
                9.46532964007929e-07,
                -1.8189894035458565e-12
            ]
        },
        {
            "children" : [
                0
            ],
            "name" : "Cylinder002",
            "rotation" : [
                1.5454309831852697e-08,
                0.7071067094802856,
                -1.5454309831852697e-08,
                0.70710688829422
            ],
            "scale" : [
                0.9999999403953552,
                1,
                1
            ],
            "translation" : [
                2.636064436956076e-06,
                -15.673032760620117,
                60.306121826171875
            ]
        },
        {
            "mesh" : 1,
            "name" : "Object001_Material #49_0"
        },
        {
            "children" : [
                2
            ],
            "name" : "Object001",
            "rotation" : [
                -0.7071068286895752,
                0,
                0,
                0.7071067094802856
            ]
        },
        {
            "name" : "Plane001",
            "rotation" : [
                -0.7071068286895752,
                0,
                0,
                0.7071067094802856
            ],
            "translation" : [
                1.2138290405273438,
                0,
                1.1252822875976562
            ]
        },
        {
            "children" : [
                1,
                3,
                4
            ],
            "name" : "RootNode"
        },
        {
            "children" : [
                5
            ],
            "name" : "landcruiser.FBX",
            "rotation" : [
                0.7071068286895752,
                0,
                0,
                0.7071067094802856
            ]
        },
        {
            "children" : [
                6
            ],
            "name" : "RootNode (model correction matrix)",
            "rotation" : [
                0.7071068286895752,
                0,
                0,
                0.7071067094802856
            ]
        },
        {
            "name" : "Light.001",
            "rotation" : [
                0.5232754349708557,
                0.3420340120792389,
                -0.7269423604011536,
                0.2841660678386688
            ],
            "scale" : [
                1.0000001192092896,
                1,
                1.0000001192092896
            ],
            "translation" : [
                4.076245307922363,
                5.903862476348877,
                -1.0054532289505005
            ]
        },
        {
            "name" : "Camera.001",
            "rotation" : [
                0.8937963247299194,
                0.0906287431716919,
                -0.3857799470424652,
                0.20997262001037598
            ],
            "scale" : [
                1,
                1.0000004768371582,
                1.000000238418579
            ],
            "translation" : [
                7.358891487121582,
                4.958308696746826,
                6.925792217254639
            ]
        },
        {
            "name" : "Light",
            "rotation" : [
                0.16907575726509094,
                0.7558802962303162,
                -0.27217137813568115,
                0.570947527885437
            ],
            "scale" : [
                1,
                1,
                0.9999999403953552
            ],
            "translation" : [
                4.076245307922363,
                5.903861999511719,
                -1.0054539442062378
            ]
        },
        {
            "name" : "Camera",
            "rotation" : [
                0.483536034822464,
                0.33687159419059753,
                -0.20870360732078552,
                0.7804827094078064
            ],
            "translation" : [
                7.358891487121582,
                4.958309173583984,
                6.925790786743164
            ]
        }
    ],
    "scene" : 0,
    "scenes" : [
        {
            "name" : "Scene",
            "nodes" : [
                7,
                8,
                9,
                10,
                11
            ]
        }
    ],
    "textures" : [
        {
            "source" : 0
        },
        {
            "source" : 1
        },
        {
            "source" : 2
        },
        {
            "source" : 3
        },
        {
            "source" : 4
        },
        {
            "source" : 5
        },
        {
            "source" : 6
        }
    ]
}
