{
    "accessors" : [
        {
            "bufferView" : 0,
            "componentType" : 5126,
            "count" : 2414,
            "max" : [
                50.3671989440918,
                135.75711059570312,
                -10.567222595214844
            ],
            "min" : [
                -50.3671989440918,
                -146.80484008789062,
                -72.55607604980469
            ],
            "type" : "VEC3"
        },
        {
            "bufferView" : 1,
            "componentType" : 5126,
            "count" : 2414,
            "type" : "VEC3"
        },
        {
            "bufferView" : 2,
            "componentType" : 5126,
            "count" : 2414,
            "type" : "VEC2"
        },
        {
            "bufferView" : 3,
            "componentType" : 5123,
            "count" : 5562,
            "type" : "SCALAR"
        },
        {
            "bufferView" : 4,
            "componentType" : 5126,
            "count" : 58,
            "max" : [
                42.683868408203125,
                59.030853271484375,
                -47.24118423461914
            ],
            "min" : [
                -42.683868408203125,
                -79.95858001708984,
                -68.48394775390625
            ],
            "type" : "VEC3"
        },
        {
            "bufferView" : 5,
            "componentType" : 5126,
            "count" : 58,
            "type" : "VEC3"
        },
        {
            "bufferView" : 6,
            "componentType" : 5126,
            "count" : 58,
            "type" : "VEC2"
        },
        {
            "bufferView" : 7,
            "componentType" : 5121,
            "count" : 126,
            "type" : "SCALAR"
        }
    ],
    "asset" : {
        "generator" : "Khronos Blender glTF 2.0 I/O",
        "version" : "2.0"
    },
    "bufferViews" : [
        {
            "buffer" : 0,
            "byteLength" : 28968,
            "byteOffset" : 0
        },
        {
            "buffer" : 0,
            "byteLength" : 28968,
            "byteOffset" : 28968
        },
        {
            "buffer" : 0,
            "byteLength" : 19312,
            "byteOffset" : 57936
        },
        {
            "buffer" : 0,
            "byteLength" : 11124,
            "byteOffset" : 77248
        },
        {
            "buffer" : 0,
            "byteLength" : 696,
            "byteOffset" : 88372
        },
        {
            "buffer" : 0,
            "byteLength" : 696,
            "byteOffset" : 89068
        },
        {
            "buffer" : 0,
            "byteLength" : 464,
            "byteOffset" : 89764
        },
        {
            "buffer" : 0,
            "byteLength" : 126,
            "byteOffset" : 90228
        }
    ],
    "buffers" : [
        {
            "byteLength" : 90356,
            "uri" : "scene.bin"
        }
    ],
    "extensions" : {},
    "images" : [
        {
            "mimeType" : "image/png",
            "name" : "Material_37_normal.png",
            "uri" : "Material_37_normal.png"
        },
        {
            "mimeType" : "image/png",
            "name" : "Material_37_baseColor.png",
            "uri" : "Material_37_baseColor.png"
        },
        {
            "mimeType" : "image/png",
            "name" : "Material_37_metallicRoughness.png",
            "uri" : "Material_37_metallicRoughness.png"
        },
        {
            "mimeType" : "image/png",
            "name" : "Material_33_normal.png",
            "uri" : "Material_33_normal.png"
        },
        {
            "mimeType" : "image/png",
            "name" : "Material_33_baseColor.png",
            "uri" : "Material_33_baseColor.png"
        },
        {
            "mimeType" : "image/png",
            "name" : "Material_33_metallicRoughness.png",
            "uri" : "Material_33_metallicRoughness.png"
        }
    ],
    "materials" : [
        {
            "name" : "Material_37",
            "normalTexture" : {
                "index" : 0,
                "texCoord" : 0
            },
            "pbrMetallicRoughness" : {
                "baseColorTexture" : {
                    "index" : 1,
                    "texCoord" : 0
                },
                "metallicRoughnessTexture" : {
                    "index" : 2,
                    "texCoord" : 0
                }
            }
        },
        {
            "name" : "Material_33",
            "normalTexture" : {
                "index" : 3,
                "texCoord" : 0
            },
            "pbrMetallicRoughness" : {
                "baseColorTexture" : {
                    "index" : 4,
                    "texCoord" : 0
                },
                "metallicRoughnessTexture" : {
                    "index" : 5,
                    "texCoord" : 0
                }
            }
        }
    ],
    "meshes" : [
        {
            "name" : "Object001_Material #37_0",
            "primitives" : [
                {
                    "attributes" : {
                        "NORMAL" : 1,
                        "POSITION" : 0,
                        "TEXCOORD_0" : 2
                    },
                    "indices" : 3,
                    "material" : 0
                }
            ]
        },
        {
            "name" : "Object002_Material #33_0",
            "primitives" : [
                {
                    "attributes" : {
                        "NORMAL" : 5,
                        "POSITION" : 4,
                        "TEXCOORD_0" : 6
                    },
                    "indices" : 7,
                    "material" : 1
                }
            ]
        }
    ],
    "nodes" : [
        {
            "mesh" : 0,
            "name" : "Object001_Material #37_0",
            "rotation" : [
                7.105427357601002e-15,
                0,
                0,
                1
            ]
        },
        {
            "children" : [
                0
            ],
            "name" : "Object001",
            "rotation" : [
                -0.7071068286895752,
                0,
                0,
                0.7071067094802856
            ]
        },
        {
            "mesh" : 1,
            "name" : "Object002_Material #33_0",
            "rotation" : [
                7.105427357601002e-15,
                0,
                0,
                1
            ]
        },
        {
            "children" : [
                2
            ],
            "name" : "Object002",
            "rotation" : [
                -0.7071068286895752,
                0,
                0,
                0.7071067094802856
            ]
        },
        {
            "name" : "Plane001",
            "rotation" : [
                -0.7071068286895752,
                0,
                0,
                0.7071067094802856
            ],
            "scale" : [
                0.6967187523841858,
                1.1204488277435303,
                1
            ],
            "translation" : [
                0.8168563842773438,
                -1.8610609769821167,
                1.2581175565719604
            ]
        },
        {
            "children" : [
                1,
                3,
                4
            ],
            "name" : "RootNode",
            "rotation" : [
                2.842170943040401e-14,
                0,
                0,
                1
            ]
        },
        {
            "children" : [
                5
            ],
            "name" : "desoto.FBX",
            "rotation" : [
                0.7071068286895752,
                0,
                0,
                0.7071067094802856
            ]
        },
        {
            "children" : [
                6
            ],
            "name" : "RootNode (model correction matrix)",
            "rotation" : [
                7.105427357601002e-15,
                0,
                0,
                1
            ]
        },
        {
            "children" : [
                7
            ],
            "name" : "RootNode (gltf orientation matrix)",
            "rotation" : [
                0.7071068286895752,
                0,
                0,
                0.7071067094802856
            ],
            "scale" : [
                1,
                1.000000238418579,
                1.000000238418579
            ]
        },
        {
            "name" : "Light.001",
            "rotation" : [
                0.5232754349708557,
                0.3420340120792389,
                -0.7269423604011536,
                0.2841660678386688
            ],
            "scale" : [
                1.0000001192092896,
                1,
                1.0000001192092896
            ],
            "translation" : [
                4.076245307922363,
                5.903862476348877,
                -1.0054532289505005
            ]
        },
        {
            "name" : "Camera.001",
            "rotation" : [
                0.8937963247299194,
                0.0906287431716919,
                -0.3857799470424652,
                0.20997262001037598
            ],
            "scale" : [
                1,
                1.0000004768371582,
                1.000000238418579
            ],
            "translation" : [
                7.358891487121582,
                4.958308696746826,
                6.925792217254639
            ]
        },
        {
            "name" : "Light",
            "rotation" : [
                0.16907575726509094,
                0.7558802962303162,
                -0.27217137813568115,
                0.570947527885437
            ],
            "scale" : [
                1,
                1,
                0.9999999403953552
            ],
            "translation" : [
                4.076245307922363,
                5.903861999511719,
                -1.0054539442062378
            ]
        },
        {
            "name" : "Camera",
            "rotation" : [
                0.483536034822464,
                0.33687159419059753,
                -0.20870360732078552,
                0.7804827094078064
            ],
            "translation" : [
                7.358891487121582,
                4.958309173583984,
                6.925790786743164
            ]
        }
    ],
    "scene" : 0,
    "scenes" : [
        {
            "name" : "Scene",
            "nodes" : [
                8,
                9,
                10,
                11,
                12
            ]
        }
    ],
    "textures" : [
        {
            "source" : 0
        },
        {
            "source" : 1
        },
        {
            "source" : 2
        },
        {
            "source" : 3
        },
        {
            "source" : 4
        },
        {
            "source" : 5
        }
    ]
}
