{
    "accessors" : [
        {
            "bufferView" : 0,
            "componentType" : 5126,
            "count" : 376,
            "max" : [
                -0.115607850253582,
                0.7687944769859314,
                0
            ],
            "min" : [
                -2.584557294845581,
                -6.218677043914795,
                -1.871055006980896
            ],
            "type" : "VEC3"
        },
        {
            "bufferView" : 1,
            "componentType" : 5126,
            "count" : 376,
            "type" : "VEC3"
        },
        {
            "bufferView" : 2,
            "componentType" : 5126,
            "count" : 376,
            "type" : "VEC2"
        },
        {
            "bufferView" : 3,
            "componentType" : 5123,
            "count" : 588,
            "type" : "SCALAR"
        },
        {
            "bufferView" : 4,
            "componentType" : 5126,
            "count" : 42,
            "max" : [
                -0.47912755608558655,
                0.19836382567882538,
                0
            ],
            "min" : [
                -0.47912755608558655,
                -0.7811958193778992,
                -0.9795598983764648
            ],
            "type" : "VEC3"
        },
        {
            "bufferView" : 5,
            "componentType" : 5126,
            "count" : 42,
            "type" : "VEC3"
        },
        {
            "bufferView" : 6,
            "componentType" : 5126,
            "count" : 42,
            "type" : "VEC2"
        },
        {
            "bufferView" : 7,
            "componentType" : 5121,
            "count" : 42,
            "type" : "SCALAR"
        }
    ],
    "asset" : {
        "generator" : "Khronos Blender glTF 2.0 I/O",
        "version" : "2.0"
    },
    "bufferViews" : [
        {
            "buffer" : 0,
            "byteLength" : 4512,
            "byteOffset" : 0
        },
        {
            "buffer" : 0,
            "byteLength" : 4512,
            "byteOffset" : 4512
        },
        {
            "buffer" : 0,
            "byteLength" : 3008,
            "byteOffset" : 9024
        },
        {
            "buffer" : 0,
            "byteLength" : 1176,
            "byteOffset" : 12032
        },
        {
            "buffer" : 0,
            "byteLength" : 504,
            "byteOffset" : 13208
        },
        {
            "buffer" : 0,
            "byteLength" : 504,
            "byteOffset" : 13712
        },
        {
            "buffer" : 0,
            "byteLength" : 336,
            "byteOffset" : 14216
        },
        {
            "buffer" : 0,
            "byteLength" : 42,
            "byteOffset" : 14552
        }
    ],
    "buffers" : [
        {
            "byteLength" : 14596,
            "uri" : "scene.bin"
        }
    ],
    "extensions" : {},
    "images" : [
        {
            "mimeType" : "image/png",
            "name" : "auto_44_baseColor.jpeg",
            "uri" : "auto_44_baseColor.png"
        },
        {
            "mimeType" : "image/png",
            "name" : "auto_48_baseColor.jpeg",
            "uri" : "auto_48_baseColor.png"
        }
    ],
    "materials" : [
        {
            "name" : "auto_44",
            "pbrMetallicRoughness" : {
                "baseColorTexture" : {
                    "index" : 0,
                    "texCoord" : 0
                },
                "metallicFactor" : 0.4,
                "roughnessFactor" : 0.9302135109901428
            }
        },
        {
            "name" : "auto_48",
            "pbrMetallicRoughness" : {
                "baseColorTexture" : {
                    "index" : 1,
                    "texCoord" : 0
                },
                "metallicFactor" : 0.4,
                "roughnessFactor" : 0.9302135109901428
            }
        }
    ],
    "meshes" : [
        {
            "name" : "Mesh1__auto_44_0",
            "primitives" : [
                {
                    "attributes" : {
                        "NORMAL" : 1,
                        "POSITION" : 0,
                        "TEXCOORD_0" : 2
                    },
                    "indices" : 3,
                    "material" : 0
                }
            ]
        },
        {
            "name" : "Mesh1__auto_45_0"
        },
        {
            "name" : "Mesh1__auto_46_0"
        },
        {
            "name" : "Mesh1__auto_47_0"
        },
        {
            "name" : "Mesh1__auto_48_0",
            "primitives" : [
                {
                    "attributes" : {
                        "NORMAL" : 5,
                        "POSITION" : 4,
                        "TEXCOORD_0" : 6
                    },
                    "indices" : 7,
                    "material" : 1
                }
            ]
        },
        {
            "name" : "Mesh1_destello02_0"
        }
    ],
    "nodes" : [
        {
            "mesh" : 0,
            "name" : "Mesh1__auto_44_0",
            "rotation" : [
                7.105427357601002e-15,
                0,
                0,
                1
            ],
            "translation" : [
                0.31815069913864136,
                0.28062358498573303,
                0.4839056432247162
            ]
        },
        {
            "mesh" : 1,
            "name" : "Mesh1__auto_45_0",
            "rotation" : [
                7.105427357601002e-15,
                0,
                0,
                1
            ]
        },
        {
            "mesh" : 2,
            "name" : "Mesh1__auto_46_0",
            "rotation" : [
                7.105427357601002e-15,
                0,
                0,
                1
            ]
        },
        {
            "mesh" : 3,
            "name" : "Mesh1__auto_47_0",
            "rotation" : [
                7.105427357601002e-15,
                0,
                0,
                1
            ]
        },
        {
            "mesh" : 4,
            "name" : "Mesh1__auto_48_0",
            "rotation" : [
                7.105427357601002e-15,
                0,
                0,
                1
            ],
            "translation" : [
                0.31815069913864136,
                0.28062358498573303,
                0.4839056432247162
            ]
        },
        {
            "mesh" : 5,
            "name" : "Mesh1_destello02_0",
            "rotation" : [
                7.105427357601002e-15,
                0,
                0,
                1
            ]
        },
        {
            "children" : [
                0,
                1,
                2,
                3,
                4,
                5
            ],
            "name" : "Mesh1",
            "rotation" : [
                7.105427357601002e-15,
                0,
                0,
                1
            ]
        },
        {
            "children" : [
                6
            ],
            "name" : "Component_9_1",
            "rotation" : [
                7.105427357601002e-15,
                0,
                0,
                1
            ]
        },
        {
            "children" : [
                7
            ],
            "name" : "skpE151_1",
            "rotation" : [
                7.105427357601002e-15,
                0,
                0,
                1
            ]
        },
        {
            "children" : [
                8
            ],
            "name" : "twd___Station_Wagen1",
            "rotation" : [
                7.105427357601002e-15,
                0,
                0,
                1
            ]
        },
        {
            "children" : [
                9
            ],
            "name" : "Model",
            "rotation" : [
                7.105427357601002e-15,
                0,
                0,
                1
            ]
        },
        {
            "children" : [
                10
            ],
            "name" : "RootNode",
            "rotation" : [
                7.105427357601002e-15,
                0,
                0,
                1
            ]
        },
        {
            "children" : [
                11
            ],
            "name" : "twd car.fbx",
            "rotation" : [
                0.7071068286895752,
                0,
                0,
                0.7071067094802856
            ],
            "scale" : [
                1,
                1.0000001192092896,
                1.0000001192092896
            ]
        },
        {
            "children" : [
                12
            ],
            "name" : "RootNode (model correction matrix)"
        },
        {
            "children" : [
                13
            ],
            "name" : "RootNode (gltf orientation matrix)",
            "scale" : [
                1,
                1.000000238418579,
                1.000000238418579
            ]
        },
        {
            "name" : "Light",
            "rotation" : [
                0.16907575726509094,
                0.7558802962303162,
                -0.27217137813568115,
                0.570947527885437
            ],
            "scale" : [
                1,
                1,
                0.9999999403953552
            ],
            "translation" : [
                4.076245307922363,
                5.903861999511719,
                -1.0054539442062378
            ]
        },
        {
            "name" : "Camera",
            "rotation" : [
                0.483536034822464,
                0.33687159419059753,
                -0.20870360732078552,
                0.7804827094078064
            ],
            "translation" : [
                7.358891487121582,
                4.958309173583984,
                6.925790786743164
            ]
        }
    ],
    "scene" : 0,
    "scenes" : [
        {
            "name" : "Scene",
            "nodes" : [
                14,
                15,
                16
            ]
        }
    ],
    "textures" : [
        {
            "source" : 0
        },
        {
            "source" : 1
        }
    ]
}
