{
    "accessors" : [
        {
            "bufferView" : 0,
            "componentType" : 5126,
            "count" : 1369,
            "max" : [
                217.6536407470703,
                90.6958999633789,
                -24.396472930908203
            ],
            "min" : [
                -220.13967895507812,
                -90.69599914550781,
                -154.3009796142578
            ],
            "type" : "VEC3"
        },
        {
            "bufferView" : 1,
            "componentType" : 5126,
            "count" : 1369,
            "type" : "VEC3"
        },
        {
            "bufferView" : 2,
            "componentType" : 5126,
            "count" : 1369,
            "type" : "VEC2"
        },
        {
            "bufferView" : 3,
            "componentType" : 5123,
            "count" : 3648,
            "type" : "SCALAR"
        }
    ],
    "asset" : {
        "generator" : "Khronos Blender glTF 2.0 I/O",
        "version" : "2.0"
    },
    "bufferViews" : [
        {
            "buffer" : 0,
            "byteLength" : 16428,
            "byteOffset" : 0
        },
        {
            "buffer" : 0,
            "byteLength" : 16428,
            "byteOffset" : 16428
        },
        {
            "buffer" : 0,
            "byteLength" : 10952,
            "byteOffset" : 32856
        },
        {
            "buffer" : 0,
            "byteLength" : 7296,
            "byteOffset" : 43808
        }
    ],
    "buffers" : [
        {
            "byteLength" : 51104,
            "uri" : "scene.bin"
        }
    ],
    "extensions" : {},
    "images" : [
        {
            "mimeType" : "image/png",
            "name" : "Material_8_emissive.png",
            "uri" : "Material_8_emissive.png"
        },
        {
            "mimeType" : "image/png",
            "name" : "Material_8_normal.png",
            "uri" : "Material_8_normal.png"
        },
        {
            "mimeType" : "image/png",
            "name" : "Material_8_baseColor.png",
            "uri" : "Material_8_baseColor.png"
        },
        {
            "mimeType" : "image/png",
            "name" : "Material_8_metallicRoughness.png.png",
            "uri" : "Material_8_metallicRoughness.png.png"
        }
    ],
    "materials" : [
        {
            "emissiveTexture" : {
                "index" : 0,
                "texCoord" : 0
            },
            "name" : "Material_8",
            "normalTexture" : {
                "index" : 1,
                "texCoord" : 0
            },
            "pbrMetallicRoughness" : {
                "baseColorTexture" : {
                    "index" : 2,
                    "texCoord" : 0
                },
                "metallicRoughnessTexture" : {
                    "index" : 3,
                    "texCoord" : 0
                }
            }
        }
    ],
    "meshes" : [
        {
            "name" : "Object001_Material #8_0",
            "primitives" : [
                {
                    "attributes" : {
                        "NORMAL" : 1,
                        "POSITION" : 0,
                        "TEXCOORD_0" : 2
                    },
                    "indices" : 3,
                    "material" : 0
                }
            ]
        }
    ],
    "nodes" : [
        {
            "mesh" : 0,
            "name" : "Object001_Material #8_0",
            "rotation" : [
                7.105427357601002e-15,
                0,
                0,
                1
            ]
        },
        {
            "children" : [
                0
            ],
            "name" : "Object001",
            "rotation" : [
                -0.7071068286895752,
                0,
                0,
                0.7071067094802856
            ]
        },
        {
            "children" : [
                1
            ],
            "name" : "RootNode",
            "rotation" : [
                2.842170943040401e-14,
                0,
                0,
                1
            ]
        },
        {
            "children" : [
                2
            ],
            "name" : "riva_final.FBX",
            "rotation" : [
                0.7071068286895752,
                0,
                0,
                0.7071067094802856
            ]
        },
        {
            "children" : [
                3
            ],
            "name" : "RootNode (model correction matrix)",
            "rotation" : [
                7.105427357601002e-15,
                0,
                0,
                1
            ]
        },
        {
            "children" : [
                4
            ],
            "name" : "RootNode (gltf orientation matrix)",
            "rotation" : [
                0.7071068286895752,
                0,
                0,
                0.7071067094802856
            ],
            "scale" : [
                1,
                1.000000238418579,
                1.000000238418579
            ]
        },
        {
            "name" : "Light.001",
            "rotation" : [
                0.5232754349708557,
                0.3420340120792389,
                -0.7269423604011536,
                0.2841660678386688
            ],
            "scale" : [
                1.0000001192092896,
                1,
                1.0000001192092896
            ],
            "translation" : [
                4.076245307922363,
                5.903862476348877,
                -1.0054532289505005
            ]
        },
        {
            "name" : "Camera.001",
            "rotation" : [
                0.8937963247299194,
                0.0906287431716919,
                -0.3857799470424652,
                0.20997262001037598
            ],
            "scale" : [
                1,
                1.0000004768371582,
                1.000000238418579
            ],
            "translation" : [
                7.358891487121582,
                4.958308696746826,
                6.925792217254639
            ]
        },
        {
            "name" : "Light",
            "rotation" : [
                0.16907575726509094,
                0.7558802962303162,
                -0.27217137813568115,
                0.570947527885437
            ],
            "scale" : [
                1,
                1,
                0.9999999403953552
            ],
            "translation" : [
                4.076245307922363,
                5.903861999511719,
                -1.0054539442062378
            ]
        },
        {
            "name" : "Camera",
            "rotation" : [
                0.483536034822464,
                0.33687159419059753,
                -0.20870360732078552,
                0.7804827094078064
            ],
            "translation" : [
                7.358891487121582,
                4.958309173583984,
                6.925790786743164
            ]
        }
    ],
    "scene" : 0,
    "scenes" : [
        {
            "name" : "Scene",
            "nodes" : [
                5,
                6,
                7,
                8,
                9
            ]
        }
    ],
    "textures" : [
        {
            "source" : 0
        },
        {
            "source" : 1
        },
        {
            "source" : 2
        },
        {
            "source" : 3
        }
    ]
}
