{
    "accessors" : [
        {
            "bufferView" : 0,
            "componentType" : 5126,
            "count" : 4852,
            "max" : [
                44.907814025878906,
                74.21553802490234,
                100.74676513671875
            ],
            "min" : [
                -44.907814025878906,
                2.9524707794189453,
                -110.69435119628906
            ],
            "type" : "VEC3"
        },
        {
            "bufferView" : 1,
            "componentType" : 5126,
            "count" : 4852,
            "type" : "VEC3"
        },
        {
            "bufferView" : 2,
            "componentType" : 5126,
            "count" : 4852,
            "type" : "VEC2"
        },
        {
            "bufferView" : 3,
            "componentType" : 5123,
            "count" : 11763,
            "type" : "SCALAR"
        },
        {
            "bufferView" : 4,
            "componentType" : 5126,
            "count" : 92,
            "max" : [
                36.4100456237793,
                71.55856323242188,
                44.25879669189453
            ],
            "min" : [
                -36.4100456237793,
                51.25664520263672,
                -11.713659286499023
            ],
            "type" : "VEC3"
        },
        {
            "bufferView" : 5,
            "componentType" : 5126,
            "count" : 92,
            "type" : "VEC3"
        },
        {
            "bufferView" : 6,
            "componentType" : 5126,
            "count" : 92,
            "type" : "VEC2"
        },
        {
            "bufferView" : 7,
            "componentType" : 5121,
            "count" : 150,
            "type" : "SCALAR"
        }
    ],
    "asset" : {
        "generator" : "Khronos Blender glTF 2.0 I/O",
        "version" : "2.0"
    },
    "bufferViews" : [
        {
            "buffer" : 0,
            "byteLength" : 58224,
            "byteOffset" : 0
        },
        {
            "buffer" : 0,
            "byteLength" : 58224,
            "byteOffset" : 58224
        },
        {
            "buffer" : 0,
            "byteLength" : 38816,
            "byteOffset" : 116448
        },
        {
            "buffer" : 0,
            "byteLength" : 23526,
            "byteOffset" : 155264
        },
        {
            "buffer" : 0,
            "byteLength" : 1104,
            "byteOffset" : 178792
        },
        {
            "buffer" : 0,
            "byteLength" : 1104,
            "byteOffset" : 179896
        },
        {
            "buffer" : 0,
            "byteLength" : 736,
            "byteOffset" : 181000
        },
        {
            "buffer" : 0,
            "byteLength" : 150,
            "byteOffset" : 181736
        }
    ],
    "buffers" : [
        {
            "byteLength" : 181888,
            "uri" : "scene.bin"
        }
    ],
    "extensions" : {},
    "images" : [
        {
            "mimeType" : "image/png",
            "name" : "Material_33_emissive.png",
            "uri" : "Material_33_emissive.png"
        },
        {
            "mimeType" : "image/png",
            "name" : "Material_33_normal.png",
            "uri" : "Material_33_normal.png"
        },
        {
            "mimeType" : "image/png",
            "name" : "Material_33_baseColor.png",
            "uri" : "Material_33_baseColor.png"
        },
        {
            "mimeType" : "image/png",
            "name" : "Material_33_metallicRoughness.png.001",
            "uri" : "Material_33_metallicRoughness.png.png"
        },
        {
            "mimeType" : "image/png",
            "name" : "Material_34_normal.png",
            "uri" : "Material_34_normal.png"
        },
        {
            "mimeType" : "image/png",
            "name" : "Material_34_baseColor.png",
            "uri" : "Material_34_baseColor.png"
        },
        {
            "mimeType" : "image/png",
            "name" : "Material_34_metallicRoughness.png.001",
            "uri" : "Material_34_metallicRoughness.png.png"
        }
    ],
    "materials" : [
        {
            "emissiveTexture" : {
                "index" : 0,
                "texCoord" : 0
            },
            "name" : "Material_33",
            "normalTexture" : {
                "index" : 1,
                "texCoord" : 0
            },
            "pbrMetallicRoughness" : {
                "baseColorTexture" : {
                    "index" : 2,
                    "texCoord" : 0
                },
                "metallicRoughnessTexture" : {
                    "index" : 3,
                    "texCoord" : 0
                }
            }
        },
        {
            "name" : "Material_34",
            "normalTexture" : {
                "index" : 4,
                "texCoord" : 0
            },
            "pbrMetallicRoughness" : {
                "baseColorTexture" : {
                    "index" : 5,
                    "texCoord" : 0
                },
                "metallicRoughnessTexture" : {
                    "index" : 6,
                    "texCoord" : 0
                }
            }
        }
    ],
    "meshes" : [
        {
            "name" : "Object001_Material #33_0",
            "primitives" : [
                {
                    "attributes" : {
                        "NORMAL" : 1,
                        "POSITION" : 0,
                        "TEXCOORD_0" : 2
                    },
                    "indices" : 3,
                    "material" : 0
                }
            ]
        },
        {
            "name" : "Object002_Material #34_0",
            "primitives" : [
                {
                    "attributes" : {
                        "NORMAL" : 5,
                        "POSITION" : 4,
                        "TEXCOORD_0" : 6
                    },
                    "indices" : 7,
                    "material" : 1
                }
            ]
        }
    ],
    "nodes" : [
        {
            "mesh" : 0,
            "name" : "Object001_Material #33_0"
        },
        {
            "children" : [
                0
            ],
            "name" : "Object001",
            "rotation" : [
                -0.7071068286895752,
                0,
                0,
                0.7071067094802856
            ],
            "scale" : [
                1,
                1.0000001192092896,
                1.0000001192092896
            ]
        },
        {
            "mesh" : 1,
            "name" : "Object002_Material #34_0"
        },
        {
            "children" : [
                2
            ],
            "name" : "Object002",
            "rotation" : [
                -0.7071068286895752,
                0,
                0,
                0.7071067094802856
            ],
            "scale" : [
                1,
                1.0000001192092896,
                1.0000001192092896
            ]
        },
        {
            "name" : "Plane001",
            "rotation" : [
                -0.7071068286895752,
                0,
                0,
                0.7071067094802856
            ],
            "scale" : [
                0.9255837202072144,
                1.0000001192092896,
                1.0000001192092896
            ],
            "translation" : [
                0.5331230163574219,
                -9.283050537109375,
                -2.778158187866211
            ]
        },
        {
            "children" : [
                1,
                3,
                4
            ],
            "name" : "RootNode",
            "rotation" : [
                7.105427357601002e-15,
                0,
                0,
                1
            ]
        },
        {
            "children" : [
                5
            ],
            "name" : "gmc.FBX",
            "rotation" : [
                0.7071068286895752,
                0,
                0,
                0.7071067094802856
            ],
            "scale" : [
                1,
                1.0000001192092896,
                1.0000001192092896
            ]
        },
        {
            "children" : [
                6
            ],
            "name" : "RootNode (model correction matrix)"
        },
        {
            "children" : [
                7
            ],
            "name" : "RootNode (gltf orientation matrix)",
            "scale" : [
                1,
                1.000000238418579,
                1.000000238418579
            ]
        },
        {
            "name" : "Light",
            "rotation" : [
                0.16907575726509094,
                0.7558802962303162,
                -0.27217137813568115,
                0.570947527885437
            ],
            "scale" : [
                1,
                1,
                0.9999999403953552
            ],
            "translation" : [
                4.076245307922363,
                5.903861999511719,
                -1.0054539442062378
            ]
        },
        {
            "name" : "Camera",
            "rotation" : [
                0.483536034822464,
                0.33687159419059753,
                -0.20870360732078552,
                0.7804827094078064
            ],
            "translation" : [
                7.358891487121582,
                4.958309173583984,
                6.925790786743164
            ]
        }
    ],
    "scene" : 0,
    "scenes" : [
        {
            "name" : "Scene",
            "nodes" : [
                8,
                9,
                10
            ]
        }
    ],
    "textures" : [
        {
            "source" : 0
        },
        {
            "source" : 1
        },
        {
            "source" : 2
        },
        {
            "source" : 3
        },
        {
            "source" : 4
        },
        {
            "source" : 5
        },
        {
            "source" : 6
        }
    ]
}
