{
    "accessors" : [
        {
            "bufferView" : 0,
            "componentType" : 5126,
            "count" : 6912,
            "max" : [
                0.6985583901405334,
                2.5119011402130127,
                -0.14566683769226074
            ],
            "min" : [
                -1.0161720514297485,
                -2.0757803916931152,
                -1.3618829250335693
            ],
            "type" : "VEC3"
        },
        {
            "bufferView" : 1,
            "componentType" : 5126,
            "count" : 6912,
            "type" : "VEC3"
        },
        {
            "bufferView" : 2,
            "componentType" : 5126,
            "count" : 6912,
            "type" : "VEC2"
        },
        {
            "bufferView" : 3,
            "componentType" : 5123,
            "count" : 6912,
            "type" : "SCALAR"
        },
        {
            "bufferView" : 4,
            "componentType" : 5126,
            "count" : 168,
            "max" : [
                0.6023232340812683,
                1.0875396728515625,
                -0.8356133103370667
            ],
            "min" : [
                -0.8847287893295288,
                -1.8462371826171875,
                -1.253710150718689
            ],
            "type" : "VEC3"
        },
        {
            "bufferView" : 5,
            "componentType" : 5126,
            "count" : 168,
            "type" : "VEC3"
        },
        {
            "bufferView" : 6,
            "componentType" : 5126,
            "count" : 168,
            "type" : "VEC2"
        },
        {
            "bufferView" : 7,
            "componentType" : 5121,
            "count" : 168,
            "type" : "SCALAR"
        },
        {
            "bufferView" : 8,
            "componentType" : 5126,
            "count" : 6291,
            "max" : [
                0.7958304286003113,
                1.2948204278945923,
                -0.19284699857234955
            ],
            "min" : [
                -1.0801223516464233,
                -0.6813779473304749,
                -1.2466541528701782
            ],
            "type" : "VEC3"
        },
        {
            "bufferView" : 9,
            "componentType" : 5126,
            "count" : 6291,
            "type" : "VEC3"
        },
        {
            "bufferView" : 10,
            "componentType" : 5126,
            "count" : 6291,
            "type" : "VEC2"
        },
        {
            "bufferView" : 11,
            "componentType" : 5123,
            "count" : 6297,
            "type" : "SCALAR"
        },
        {
            "bufferView" : 12,
            "componentType" : 5126,
            "count" : 84,
            "max" : [
                0.6274800300598145,
                0.6026239991188049,
                -0.21342603862285614
            ],
            "min" : [
                -0.8753111958503723,
                -1.8738203048706055,
                -0.8774957060813904
            ],
            "type" : "VEC3"
        },
        {
            "bufferView" : 13,
            "componentType" : 5126,
            "count" : 84,
            "type" : "VEC3"
        },
        {
            "bufferView" : 14,
            "componentType" : 5126,
            "count" : 84,
            "type" : "VEC2"
        },
        {
            "bufferView" : 15,
            "componentType" : 5121,
            "count" : 84,
            "type" : "SCALAR"
        }
    ],
    "asset" : {
        "generator" : "Khronos Blender glTF 2.0 I/O",
        "version" : "2.0"
    },
    "bufferViews" : [
        {
            "buffer" : 0,
            "byteLength" : 82944,
            "byteOffset" : 0
        },
        {
            "buffer" : 0,
            "byteLength" : 82944,
            "byteOffset" : 82944
        },
        {
            "buffer" : 0,
            "byteLength" : 55296,
            "byteOffset" : 165888
        },
        {
            "buffer" : 0,
            "byteLength" : 13824,
            "byteOffset" : 221184
        },
        {
            "buffer" : 0,
            "byteLength" : 2016,
            "byteOffset" : 235008
        },
        {
            "buffer" : 0,
            "byteLength" : 2016,
            "byteOffset" : 237024
        },
        {
            "buffer" : 0,
            "byteLength" : 1344,
            "byteOffset" : 239040
        },
        {
            "buffer" : 0,
            "byteLength" : 168,
            "byteOffset" : 240384
        },
        {
            "buffer" : 0,
            "byteLength" : 75492,
            "byteOffset" : 240552
        },
        {
            "buffer" : 0,
            "byteLength" : 75492,
            "byteOffset" : 316044
        },
        {
            "buffer" : 0,
            "byteLength" : 50328,
            "byteOffset" : 391536
        },
        {
            "buffer" : 0,
            "byteLength" : 12594,
            "byteOffset" : 441864
        },
        {
            "buffer" : 0,
            "byteLength" : 1008,
            "byteOffset" : 454460
        },
        {
            "buffer" : 0,
            "byteLength" : 1008,
            "byteOffset" : 455468
        },
        {
            "buffer" : 0,
            "byteLength" : 672,
            "byteOffset" : 456476
        },
        {
            "buffer" : 0,
            "byteLength" : 84,
            "byteOffset" : 457148
        }
    ],
    "buffers" : [
        {
            "byteLength" : 457232,
            "uri" : "scene.bin"
        }
    ],
    "extensions" : {},
    "images" : [
        {
            "mimeType" : "image/png",
            "name" : "auto_1_normal.png",
            "uri" : "auto_1_normal.png"
        },
        {
            "mimeType" : "image/png",
            "name" : "auto_1_baseColor.jpeg",
            "uri" : "auto_1_baseColor.png"
        },
        {
            "mimeType" : "image/jpeg",
            "name" : "auto_2_baseColor.jpeg",
            "uri" : "auto_2_baseColor.jpeg"
        },
        {
            "mimeType" : "image/png",
            "name" : "auto_4_baseColor.jpeg",
            "uri" : "auto_4_baseColor.png"
        },
        {
            "mimeType" : "image/png",
            "name" : "auto_7_baseColor.jpeg",
            "uri" : "auto_7_baseColor.png"
        }
    ],
    "materials" : [
        {
            "name" : "auto_1",
            "normalTexture" : {
                "index" : 0,
                "texCoord" : 0
            },
            "pbrMetallicRoughness" : {
                "baseColorTexture" : {
                    "index" : 1,
                    "texCoord" : 0
                },
                "metallicFactor" : 0.5139100551605225,
                "roughnessFactor" : 1
            }
        },
        {
            "name" : "auto_2",
            "pbrMetallicRoughness" : {
                "baseColorTexture" : {
                    "index" : 2,
                    "texCoord" : 0
                },
                "metallicFactor" : 0,
                "roughnessFactor" : 0.9302135109901428
            }
        },
        {
            "name" : "auto_4",
            "pbrMetallicRoughness" : {
                "baseColorTexture" : {
                    "index" : 3,
                    "texCoord" : 0
                },
                "metallicFactor" : 0,
                "roughnessFactor" : 0.9302135109901428
            }
        },
        {
            "name" : "auto_7",
            "pbrMetallicRoughness" : {
                "baseColorTexture" : {
                    "index" : 4,
                    "texCoord" : 0
                },
                "metallicFactor" : 0,
                "roughnessFactor" : 0.9302135109901428
            }
        }
    ],
    "meshes" : [
        {
            "name" : "Mesh1__auto_1_0",
            "primitives" : [
                {
                    "attributes" : {
                        "NORMAL" : 1,
                        "POSITION" : 0,
                        "TEXCOORD_0" : 2
                    },
                    "indices" : 3,
                    "material" : 0
                }
            ]
        },
        {
            "name" : "Mesh1__auto_2_0",
            "primitives" : [
                {
                    "attributes" : {
                        "NORMAL" : 5,
                        "POSITION" : 4,
                        "TEXCOORD_0" : 6
                    },
                    "indices" : 7,
                    "material" : 1
                }
            ]
        },
        {
            "name" : "Mesh1__auto_4_0",
            "primitives" : [
                {
                    "attributes" : {
                        "NORMAL" : 9,
                        "POSITION" : 8,
                        "TEXCOORD_0" : 10
                    },
                    "indices" : 11,
                    "material" : 2
                }
            ]
        },
        {
            "name" : "Mesh1__auto_7_0",
            "primitives" : [
                {
                    "attributes" : {
                        "NORMAL" : 13,
                        "POSITION" : 12,
                        "TEXCOORD_0" : 14
                    },
                    "indices" : 15,
                    "material" : 3
                }
            ]
        },
        {
            "name" : "Mesh1__auto__0"
        }
    ],
    "nodes" : [
        {
            "mesh" : 0,
            "name" : "Mesh1__auto_1_0",
            "rotation" : [
                7.105427357601002e-15,
                0,
                0,
                1
            ]
        },
        {
            "mesh" : 1,
            "name" : "Mesh1__auto_2_0",
            "rotation" : [
                7.105427357601002e-15,
                0,
                0,
                1
            ]
        },
        {
            "mesh" : 2,
            "name" : "Mesh1__auto_4_0",
            "rotation" : [
                7.105427357601002e-15,
                0,
                0,
                1
            ]
        },
        {
            "mesh" : 3,
            "name" : "Mesh1__auto_7_0",
            "rotation" : [
                7.105427357601002e-15,
                0,
                0,
                1
            ]
        },
        {
            "mesh" : 4,
            "name" : "Mesh1__auto__0",
            "rotation" : [
                7.105427357601002e-15,
                0,
                0,
                1
            ]
        },
        {
            "children" : [
                0,
                1,
                2,
                3,
                4
            ],
            "name" : "Mesh1",
            "rotation" : [
                7.105427357601002e-15,
                0,
                0,
                1
            ]
        },
        {
            "children" : [
                5
            ],
            "name" : "skp7E74_1",
            "rotation" : [
                7.105427357601002e-15,
                0,
                0,
                1
            ]
        },
        {
            "children" : [
                6
            ],
            "name" : "silent_hill_shattered_memories___Harrys_auto1",
            "rotation" : [
                7.105427357601002e-15,
                0,
                0,
                1
            ]
        },
        {
            "children" : [
                7
            ],
            "name" : "Model",
            "rotation" : [
                7.105427357601002e-15,
                0,
                0,
                1
            ]
        },
        {
            "children" : [
                8
            ],
            "name" : "RootNode",
            "rotation" : [
                7.105427357601002e-15,
                0,
                0,
                1
            ]
        },
        {
            "children" : [
                9
            ],
            "name" : "car1.fbx",
            "rotation" : [
                0.7071068286895752,
                0,
                0,
                0.7071067094802856
            ],
            "scale" : [
                1,
                1.0000001192092896,
                1.0000001192092896
            ]
        },
        {
            "children" : [
                10
            ],
            "name" : "RootNode (model correction matrix)"
        },
        {
            "children" : [
                11
            ],
            "name" : "RootNode (gltf orientation matrix)",
            "scale" : [
                1,
                1.000000238418579,
                1.000000238418579
            ]
        },
        {
            "name" : "Light",
            "rotation" : [
                0.16907575726509094,
                0.7558802962303162,
                -0.27217137813568115,
                0.570947527885437
            ],
            "scale" : [
                1,
                1,
                0.9999999403953552
            ],
            "translation" : [
                4.076245307922363,
                5.903861999511719,
                -1.0054539442062378
            ]
        },
        {
            "name" : "Camera",
            "rotation" : [
                0.483536034822464,
                0.33687159419059753,
                -0.20870360732078552,
                0.7804827094078064
            ],
            "translation" : [
                7.358891487121582,
                4.958309173583984,
                6.925790786743164
            ]
        }
    ],
    "scene" : 0,
    "scenes" : [
        {
            "name" : "Scene",
            "nodes" : [
                12,
                13,
                14
            ]
        }
    ],
    "textures" : [
        {
            "source" : 0
        },
        {
            "source" : 1
        },
        {
            "source" : 2
        },
        {
            "source" : 3
        },
        {
            "source" : 4
        }
    ]
}
