{
    "accessors" : [
        {
            "bufferView" : 0,
            "componentType" : 5126,
            "count" : 322,
            "max" : [
                0.42329123616218567,
                0.41430872678756714,
                0.10299788415431976
            ],
            "min" : [
                -0.40294724702835083,
                -0.4248158633708954,
                -0.13347411155700684
            ],
            "type" : "VEC3"
        },
        {
            "bufferView" : 1,
            "componentType" : 5126,
            "count" : 322,
            "type" : "VEC3"
        },
        {
            "bufferView" : 2,
            "componentType" : 5126,
            "count" : 322,
            "type" : "VEC2"
        },
        {
            "bufferView" : 3,
            "componentType" : 5123,
            "count" : 1008,
            "type" : "SCALAR"
        }
    ],
    "asset" : {
        "generator" : "Khronos Blender glTF 2.0 I/O",
        "version" : "2.0"
    },
    "bufferViews" : [
        {
            "buffer" : 0,
            "byteLength" : 3864,
            "byteOffset" : 0
        },
        {
            "buffer" : 0,
            "byteLength" : 3864,
            "byteOffset" : 3864
        },
        {
            "buffer" : 0,
            "byteLength" : 2576,
            "byteOffset" : 7728
        },
        {
            "buffer" : 0,
            "byteLength" : 2016,
            "byteOffset" : 10304
        }
    ],
    "buffers" : [
        {
            "byteLength" : 12320,
            "uri" : "scene.bin"
        }
    ],
    "extensions" : {},
    "images" : [
        {
            "mimeType" : "image/png",
            "name" : "material_normal.png",
            "uri" : "material_normal.png"
        },
        {
            "mimeType" : "image/png",
            "name" : "material_baseColor.png",
            "uri" : "material_baseColor.png"
        }
    ],
    "materials" : [
        {
            "name" : "material",
            "normalTexture" : {
                "index" : 0,
                "texCoord" : 0
            },
            "pbrMetallicRoughness" : {
                "baseColorTexture" : {
                    "index" : 1,
                    "texCoord" : 0
                },
                "metallicFactor" : 0,
                "roughnessFactor" : 0.9302135109901428
            }
        }
    ],
    "meshes" : [
        {
            "name" : "Mesh1__11_0",
            "primitives" : [
                {
                    "attributes" : {
                        "NORMAL" : 1,
                        "POSITION" : 0,
                        "TEXCOORD_0" : 2
                    },
                    "indices" : 3,
                    "material" : 0
                }
            ]
        }
    ],
    "nodes" : [
        {
            "mesh" : 0,
            "name" : "Mesh1__11_0",
            "rotation" : [
                7.105427357601002e-15,
                0,
                0,
                1
            ]
        },
        {
            "children" : [
                0
            ],
            "name" : "Mesh1",
            "rotation" : [
                7.105427357601002e-15,
                0,
                0,
                1
            ]
        },
        {
            "children" : [
                1
            ],
            "name" : "wheel_l1",
            "rotation" : [
                7.105427357601002e-15,
                0,
                0,
                1
            ]
        },
        {
            "name" : "Mesh2",
            "rotation" : [
                7.105427357601002e-15,
                0,
                0,
                1
            ]
        },
        {
            "children" : [
                3
            ],
            "name" : "wheel_l2",
            "rotation" : [
                7.105427357601002e-15,
                0,
                0,
                1
            ]
        },
        {
            "children" : [
                2,
                4
            ],
            "name" : "wheels1",
            "rotation" : [
                7.105427357601002e-15,
                0,
                0,
                1
            ]
        },
        {
            "children" : [
                5
            ],
            "name" : "Model",
            "rotation" : [
                7.105427357601002e-15,
                0,
                0,
                1
            ]
        },
        {
            "children" : [
                6
            ],
            "name" : "RootNode",
            "rotation" : [
                7.105427357601002e-15,
                0,
                0,
                1
            ]
        },
        {
            "children" : [
                7
            ],
            "name" : "wheels.fbx",
            "rotation" : [
                0.7071068286895752,
                0,
                0,
                0.7071067094802856
            ],
            "scale" : [
                1,
                1.0000001192092896,
                1.0000001192092896
            ]
        },
        {
            "children" : [
                8
            ],
            "name" : "RootNode (model correction matrix)"
        },
        {
            "children" : [
                9
            ],
            "name" : "RootNode (gltf orientation matrix)",
            "scale" : [
                1,
                1.000000238418579,
                1.000000238418579
            ]
        },
        {
            "name" : "Light",
            "rotation" : [
                0.16907575726509094,
                0.7558802962303162,
                -0.27217137813568115,
                0.570947527885437
            ],
            "scale" : [
                1,
                1,
                0.9999999403953552
            ],
            "translation" : [
                4.076245307922363,
                5.903861999511719,
                -1.0054539442062378
            ]
        },
        {
            "name" : "Camera",
            "rotation" : [
                0.483536034822464,
                0.33687159419059753,
                -0.20870360732078552,
                0.7804827094078064
            ],
            "translation" : [
                7.358891487121582,
                4.958309173583984,
                6.925790786743164
            ]
        }
    ],
    "scene" : 0,
    "scenes" : [
        {
            "name" : "Scene",
            "nodes" : [
                10,
                11,
                12
            ]
        }
    ],
    "textures" : [
        {
            "source" : 0
        },
        {
            "source" : 1
        }
    ]
}
