{
    "accessors" : [
        {
            "bufferView" : 0,
            "componentType" : 5126,
            "count" : 60,
            "max" : [
                36.060482025146484,
                60.528770446777344,
                29.256351470947266
            ],
            "min" : [
                -36.060482025146484,
                41.226356506347656,
                -73.78015899658203
            ],
            "type" : "VEC3"
        },
        {
            "bufferView" : 1,
            "componentType" : 5126,
            "count" : 60,
            "type" : "VEC3"
        },
        {
            "bufferView" : 2,
            "componentType" : 5126,
            "count" : 60,
            "type" : "VEC2"
        },
        {
            "bufferView" : 3,
            "componentType" : 5121,
            "count" : 120,
            "type" : "SCALAR"
        },
        {
            "bufferView" : 4,
            "componentType" : 5126,
            "count" : 3177,
            "max" : [
                43.760677337646484,
                62.67261505126953,
                111.49826049804688
            ],
            "min" : [
                -43.760677337646484,
                11.241189002990723,
                -120.63412475585938
            ],
            "type" : "VEC3"
        },
        {
            "bufferView" : 5,
            "componentType" : 5126,
            "count" : 3177,
            "type" : "VEC3"
        },
        {
            "bufferView" : 6,
            "componentType" : 5126,
            "count" : 3177,
            "type" : "VEC2"
        },
        {
            "bufferView" : 7,
            "componentType" : 5123,
            "count" : 5994,
            "type" : "SCALAR"
        }
    ],
    "asset" : {
        "generator" : "Khronos Blender glTF 2.0 I/O",
        "version" : "2.0"
    },
    "bufferViews" : [
        {
            "buffer" : 0,
            "byteLength" : 720,
            "byteOffset" : 0
        },
        {
            "buffer" : 0,
            "byteLength" : 720,
            "byteOffset" : 720
        },
        {
            "buffer" : 0,
            "byteLength" : 480,
            "byteOffset" : 1440
        },
        {
            "buffer" : 0,
            "byteLength" : 120,
            "byteOffset" : 1920
        },
        {
            "buffer" : 0,
            "byteLength" : 38124,
            "byteOffset" : 2040
        },
        {
            "buffer" : 0,
            "byteLength" : 38124,
            "byteOffset" : 40164
        },
        {
            "buffer" : 0,
            "byteLength" : 25416,
            "byteOffset" : 78288
        },
        {
            "buffer" : 0,
            "byteLength" : 11988,
            "byteOffset" : 103704
        }
    ],
    "buffers" : [
        {
            "byteLength" : 115692,
            "uri" : "scene.bin"
        }
    ],
    "extensions" : {},
    "images" : [
        {
            "mimeType" : "image/png",
            "name" : "Material_69_normal.png",
            "uri" : "Material_69_normal.png"
        },
        {
            "mimeType" : "image/png",
            "name" : "Material_69_baseColor.png",
            "uri" : "Material_69_baseColor.png"
        },
        {
            "mimeType" : "image/png",
            "name" : "Material_69_metallicRoughness.png.001",
            "uri" : "Material_69_metallicRoughness.png.png"
        },
        {
            "mimeType" : "image/png",
            "name" : "Material_68_emissive.png",
            "uri" : "Material_68_emissive.png"
        },
        {
            "mimeType" : "image/png",
            "name" : "Material_68_normal.png",
            "uri" : "Material_68_normal.png"
        },
        {
            "mimeType" : "image/png",
            "name" : "Material_68_baseColor.png",
            "uri" : "Material_68_baseColor.png"
        },
        {
            "mimeType" : "image/png",
            "name" : "Material_68_metallicRoughness.png.001",
            "uri" : "Material_68_metallicRoughness.png.png"
        }
    ],
    "materials" : [
        {
            "alphaMode": "BLEND",
            "doubleSided": true,
            "name" : "Material_69",
            "normalTexture" : {
                "index" : 0,
                "texCoord" : 0
            },
            "pbrMetallicRoughness" : {
                "baseColorTexture" : {
                    "index" : 1,
                    "texCoord" : 0
                },
                "metallicRoughnessTexture" : {
                    "index" : 2,
                    "texCoord" : 0
                }
            }
        },
        {
            "emissiveTexture" : {
                "index" : 3,
                "texCoord" : 0
            },
            "name" : "Material_68",
            "normalTexture" : {
                "index" : 4,
                "texCoord" : 0
            },
            "pbrMetallicRoughness" : {
                "baseColorTexture" : {
                    "index" : 5,
                    "texCoord" : 0
                },
                "metallicRoughnessTexture" : {
                    "index" : 6,
                    "texCoord" : 0
                }
            }
        }
    ],
    "meshes" : [
        {
            "name" : "Object001_Material #69_0",
            "primitives" : [
                {
                    "attributes" : {
                        "NORMAL" : 1,
                        "POSITION" : 0,
                        "TEXCOORD_0" : 2
                    },
                    "indices" : 3,
                    "material" : 0
                }
            ]
        },
        {
            "name" : "ventura_Material #68_0",
            "primitives" : [
                {
                    "attributes" : {
                        "NORMAL" : 5,
                        "POSITION" : 4,
                        "TEXCOORD_0" : 6
                    },
                    "indices" : 7,
                    "material" : 1
                }
            ]
        }
    ],
    "nodes" : [
        {
            "mesh" : 0,
            "name" : "Object001_Material #69_0",
            "translation" : [
                -2.384185791015625e-07,
                0,
                2.384185791015625e-07
            ]
        },
        {
            "children" : [
                0
            ],
            "name" : "Object001",
            "rotation" : [
                -0.7071068286895752,
                1.6463613805584032e-10,
                -1.6463613805584032e-10,
                0.7071067094802856
            ],
            "scale" : [
                1,
                1.0000001192092896,
                1.0000001192092896
            ],
            "translation" : [
                -2.384185791015625e-07,
                0,
                0
            ]
        },
        {
            "name" : "Plane001",
            "rotation" : [
                -0.7071068286895752,
                1.6463613805584032e-10,
                -1.6463613805584032e-10,
                0.7071067094802856
            ],
            "scale" : [
                1,
                1.0000001192092896,
                1.0000001192092896
            ],
            "translation" : [
                -3.324688196182251,
                -0.0660707950592041,
                1.2507514953613281
            ]
        },
        {
            "mesh" : 1,
            "name" : "ventura_Material #68_0",
            "translation" : [
                -2.384185791015625e-07,
                0,
                2.384185791015625e-07
            ]
        },
        {
            "children" : [
                3
            ],
            "name" : "ventura",
            "rotation" : [
                -0.7071068286895752,
                1.6463613805584032e-10,
                -1.6463613805584032e-10,
                0.7071067094802856
            ],
            "scale" : [
                1,
                1.0000001192092896,
                1.0000001192092896
            ],
            "translation" : [
                -2.384185791015625e-07,
                0,
                0
            ]
        },
        {
            "children" : [
                1,
                2,
                4
            ],
            "name" : "RootNode",
            "rotation" : [
                7.105427357601002e-15,
                1.3877787807814457e-17,
                -2.3283064365386963e-10,
                1
            ],
            "translation" : [
                -2.384185791015625e-07,
                0,
                0
            ]
        },
        {
            "children" : [
                5
            ],
            "name" : "ventura.FBX",
            "rotation" : [
                0.7071068286895752,
                -1.646361103002647e-10,
                0,
                0.7071067094802856
            ],
            "scale" : [
                1,
                1.0000001192092896,
                1.0000001192092896
            ],
            "translation" : [
                -2.384185791015625e-07,
                0,
                0
            ]
        },
        {
            "children" : [
                6
            ],
            "name" : "RootNode (model correction matrix)",
            "rotation" : [
                0,
                0.7095236778259277,
                0,
                0.7046816945075989
            ],
            "scale" : [
                0.9999999403953552,
                1,
                0.9999999403953552
            ],
            "translation" : [
                -3.280829906463623,
                0,
                -3.3917112350463867
            ]
        },
        {
            "children" : [
                7
            ],
            "name" : "RootNode (gltf orientation matrix)",
            "scale" : [
                1,
                1.000000238418579,
                1.000000238418579
            ]
        },
        {
            "name" : "Light",
            "rotation" : [
                0.16907575726509094,
                0.7558802962303162,
                -0.27217137813568115,
                0.570947527885437
            ],
            "scale" : [
                1,
                1,
                0.9999999403953552
            ],
            "translation" : [
                4.076245307922363,
                5.903861999511719,
                -1.0054539442062378
            ]
        },
        {
            "name" : "Camera",
            "rotation" : [
                0.483536034822464,
                0.33687159419059753,
                -0.20870360732078552,
                0.7804827094078064
            ],
            "translation" : [
                7.358891487121582,
                4.958309173583984,
                6.925790786743164
            ]
        }
    ],
    "scene" : 0,
    "scenes" : [
        {
            "name" : "Scene",
            "nodes" : [
                8,
                9,
                10
            ]
        }
    ],
    "textures" : [
        {
            "source" : 0
        },
        {
            "source" : 1
        },
        {
            "source" : 2
        },
        {
            "source" : 3
        },
        {
            "source" : 4
        },
        {
            "source" : 5
        },
        {
            "source" : 6
        }
    ]
}
